<svg width="100%" height="100%" viewBox="0 0 159 40" fill="none" xmlns="http://www.w3.org/2000/svg">
<mask id="mask0_161_4983" style="mask-type:luminance" maskUnits="userSpaceOnUse" x="70" y="0" width="89" height="40">
<path fill-rule="evenodd" clip-rule="evenodd" d="M145.648 0C145.21 0 144.836 0.156494 144.523 0.469484C144.211 0.782473 144.055 1.15806 144.055 1.59624V18.7324C144.055 19.2019 144.211 19.5931 144.523 19.9061C144.836 20.1878 145.21 20.3286 145.648 20.3286H152.675C153.113 20.3286 153.487 20.1878 153.8 19.9061C154.112 19.5931 154.268 19.2019 154.268 18.7324V14.0845H157.407C157.844 14.0845 158.219 13.928 158.532 13.615C158.844 13.302 159 12.9264 159 12.4883V7.23005C159 6.76056 158.844 6.36933 158.532 6.05634C158.219 5.71205 157.844 5.53991 157.407 5.53991H154.268V1.59624C154.268 1.15806 154.112 0.782473 153.8 0.469484C153.487 0.156494 153.113 0 152.675 0H145.648ZM99.7128 0C99.2755 0 98.9007 0.156494 98.5884 0.469484C98.276 0.782473 98.1198 1.15806 98.1198 1.59624V18.7324C98.1198 19.2019 98.276 19.5931 98.5884 19.9061C98.9007 20.1878 99.2755 20.3286 99.7128 20.3286H106.74C107.178 20.3286 107.552 20.1878 107.865 19.9061C108.177 19.5931 108.333 19.2019 108.333 18.7324V14.0845H111.472C111.909 14.0845 112.284 13.928 112.597 13.615C112.909 13.302 113.065 12.9264 113.065 12.4883V7.23005C113.065 6.76056 112.909 6.36933 112.597 6.05634C112.284 5.71205 111.909 5.53991 111.472 5.53991H108.333V1.59624C108.333 1.15806 108.177 0.782473 107.865 0.469484C107.552 0.156494 107.178 0 106.74 0H99.7128ZM117.585 0.469484C117.147 0.469484 116.757 0.625978 116.413 0.938967C116.101 1.25196 115.945 1.62754 115.945 2.06573V14.7418C115.945 16.5258 116.398 17.8404 117.303 18.6854C118.209 19.4992 119.505 19.9061 121.192 19.9061H138.292C138.73 19.9061 139.104 19.7496 139.417 19.4366C139.729 19.1236 139.885 18.748 139.885 18.3099V14.3192C139.885 13.8498 139.729 13.4585 139.417 13.1455C139.104 12.8013 138.73 12.6291 138.292 12.6291H125.643V7.74648H137.824C138.261 7.74648 138.636 7.58998 138.948 7.277C139.261 6.96401 139.417 6.58842 139.417 6.15023V2.15962C139.417 1.69014 139.261 1.2989 138.948 0.985915C138.636 0.641628 138.261 0.469484 137.824 0.469484H117.585ZM71.6495 0.469484C71.2123 0.469484 70.8218 0.625978 70.4783 0.938967C70.1659 1.25196 70.0098 1.62754 70.0098 2.06573V14.7418C70.0098 16.5258 70.4627 17.8404 71.3684 18.6854C72.2742 19.4992 73.5704 19.9061 75.257 19.9061H92.3573C92.7945 19.9061 93.1694 19.7496 93.4817 19.4366C93.794 19.1236 93.9502 18.748 93.9502 18.3099V14.3192C93.9502 13.8498 93.794 13.4585 93.4817 13.1455C93.1694 12.8013 92.7945 12.6291 92.3573 12.6291H79.7077V7.74648H91.8888C92.326 7.74648 92.7008 7.58998 93.0132 7.277C93.3255 6.96401 93.4817 6.58842 93.4817 6.15023V2.15962C93.4817 1.69014 93.3255 1.2989 93.0132 0.985915C92.7008 0.641628 92.326 0.469484 91.8888 0.469484H71.6495ZM118.943 21.9718C118.506 21.9718 118.115 22.1283 117.772 22.4413C117.46 22.7543 117.303 23.1299 117.303 23.5681V34.8357C117.303 36.6197 117.756 37.9186 118.662 38.7324C119.568 39.5775 120.864 40 122.551 40H149.021C150.708 40 152.004 39.5775 152.91 38.7324C153.815 37.9186 154.268 36.6197 154.268 34.8357V23.5681C154.268 23.1299 154.112 22.7543 153.8 22.4413C153.487 22.1283 153.097 21.9718 152.628 21.9718H118.943ZM127.61 32.4887H143.962V29.4836H127.61V32.4887ZM73.0082 21.9718C72.5709 21.9718 72.1805 22.1283 71.8369 22.4413C71.5246 22.7543 71.3684 23.1299 71.3684 23.5681V34.8357C71.3684 36.6197 71.8213 37.9186 72.7271 38.7324C73.6328 39.5775 74.929 40 76.6156 40H103.086C104.773 40 106.069 39.5775 106.975 38.7324C107.88 37.9186 108.333 36.6197 108.333 34.8357V23.5681C108.333 23.1299 108.177 22.7543 107.865 22.4413C107.552 22.1283 107.162 21.9718 106.693 21.9718H73.0082ZM81.6755 32.4887H98.0265V29.4836H81.6755V32.4887Z" fill="white"/>
</mask>
<g mask="url(#mask0_161_4983)">
<path fill-rule="evenodd" clip-rule="evenodd" d="M145.648 0C145.21 0 144.836 0.156494 144.523 0.469484C144.211 0.782473 144.055 1.15806 144.055 1.59624V18.7324C144.055 19.2019 144.211 19.5931 144.523 19.9061C144.836 20.1878 145.21 20.3286 145.648 20.3286H152.675C153.113 20.3286 153.487 20.1878 153.8 19.9061C154.112 19.5931 154.268 19.2019 154.268 18.7324V14.0845H157.407C157.844 14.0845 158.219 13.928 158.532 13.615C158.844 13.302 159 12.9264 159 12.4883V7.23005C159 6.76056 158.844 6.36933 158.532 6.05634C158.219 5.71205 157.844 5.53991 157.407 5.53991H154.268V1.59624C154.268 1.15806 154.112 0.782473 153.8 0.469484C153.487 0.156494 153.113 0 152.675 0H145.648ZM99.7128 0C99.2755 0 98.9007 0.156494 98.5884 0.469484C98.276 0.782473 98.1198 1.15806 98.1198 1.59624V18.7324C98.1198 19.2019 98.276 19.5931 98.5884 19.9061C98.9007 20.1878 99.2755 20.3286 99.7128 20.3286H106.74C107.178 20.3286 107.552 20.1878 107.865 19.9061C108.177 19.5931 108.333 19.2019 108.333 18.7324V14.0845H111.472C111.909 14.0845 112.284 13.928 112.597 13.615C112.909 13.302 113.065 12.9264 113.065 12.4883V7.23005C113.065 6.76056 112.909 6.36933 112.597 6.05634C112.284 5.71205 111.909 5.53991 111.472 5.53991H108.333V1.59624C108.333 1.15806 108.177 0.782473 107.865 0.469484C107.552 0.156494 107.178 0 106.74 0H99.7128ZM117.585 0.469484C117.147 0.469484 116.757 0.625978 116.413 0.938967C116.101 1.25196 115.945 1.62754 115.945 2.06573V14.7418C115.945 16.5258 116.398 17.8404 117.303 18.6854C118.209 19.4992 119.505 19.9061 121.192 19.9061H138.292C138.73 19.9061 139.104 19.7496 139.417 19.4366C139.729 19.1236 139.885 18.748 139.885 18.3099V14.3192C139.885 13.8498 139.729 13.4585 139.417 13.1455C139.104 12.8013 138.73 12.6291 138.292 12.6291H125.643V7.74648H137.824C138.261 7.74648 138.636 7.58998 138.948 7.277C139.261 6.96401 139.417 6.58842 139.417 6.15023V2.15962C139.417 1.69014 139.261 1.2989 138.948 0.985915C138.636 0.641628 138.261 0.469484 137.824 0.469484H117.585ZM71.6495 0.469484C71.2123 0.469484 70.8218 0.625978 70.4783 0.938967C70.1659 1.25196 70.0098 1.62754 70.0098 2.06573V14.7418C70.0098 16.5258 70.4627 17.8404 71.3684 18.6854C72.2742 19.4992 73.5704 19.9061 75.257 19.9061H92.3573C92.7945 19.9061 93.1694 19.7496 93.4817 19.4366C93.794 19.1236 93.9502 18.748 93.9502 18.3099V14.3192C93.9502 13.8498 93.794 13.4585 93.4817 13.1455C93.1694 12.8013 92.7945 12.6291 92.3573 12.6291H79.7077V7.74648H91.8888C92.326 7.74648 92.7008 7.58998 93.0132 7.277C93.3255 6.96401 93.4817 6.58842 93.4817 6.15023V2.15962C93.4817 1.69014 93.3255 1.2989 93.0132 0.985915C92.7008 0.641628 92.326 0.469484 91.8888 0.469484H71.6495ZM118.943 21.9718C118.506 21.9718 118.115 22.1283 117.772 22.4413C117.46 22.7543 117.303 23.1299 117.303 23.5681V34.8357C117.303 36.6197 117.756 37.9186 118.662 38.7324C119.568 39.5775 120.864 40 122.551 40H149.021C150.708 40 152.004 39.5775 152.91 38.7324C153.815 37.9186 154.268 36.6197 154.268 34.8357V23.5681C154.268 23.1299 154.112 22.7543 153.8 22.4413C153.487 22.1283 153.097 21.9718 152.628 21.9718H118.943ZM127.61 32.4887H143.962V29.4836H127.61V32.4887ZM73.0082 21.9718C72.5709 21.9718 72.1805 22.1283 71.8369 22.4413C71.5246 22.7543 71.3684 23.1299 71.3684 23.5681V34.8357C71.3684 36.6197 71.8213 37.9186 72.7271 38.7324C73.6328 39.5775 74.929 40 76.6156 40H103.086C104.773 40 106.069 39.5775 106.975 38.7324C107.88 37.9186 108.333 36.6197 108.333 34.8357V23.5681C108.333 23.1299 108.177 22.7543 107.865 22.4413C107.552 22.1283 107.162 21.9718 106.693 21.9718H73.0082ZM81.6755 32.4887H98.0265V29.4836H81.6755V32.4887Z" fill="url(#paint0_linear_161_4983)"/>
</g>
<path fill-rule="evenodd" clip-rule="evenodd" d="M27.3291 11.9246C27.3291 5.44259 32.5732 0.1875 39.0416 0.1875H42.9458C52.4334 0.1875 60.1242 7.89486 60.1242 17.4019V18.1844C60.1242 29.4203 51.0349 38.5287 39.8225 38.5287H30.4524C28.7276 38.5287 27.3291 37.1273 27.3291 35.3988V11.9246Z" fill="url(#paint1_linear_161_4983)"/>
<path fill-rule="evenodd" clip-rule="evenodd" d="M0 11.9246C0 5.44259 5.24409 0.1875 11.7125 0.1875H15.6167C25.1043 0.1875 32.7951 7.89486 32.7951 17.4019V18.1844C32.7951 29.4203 23.7058 38.5287 12.4934 38.5287H3.12334C1.39848 38.5287 0 37.1273 0 35.3988V11.9246Z" fill="url(#paint2_linear_161_4983)"/>
<path fill-rule="evenodd" clip-rule="evenodd" d="M10.1505 17.793C11.013 17.793 11.7122 18.4937 11.7122 19.3579C11.7122 20.2222 11.013 20.9229 10.1505 20.9229C9.28811 20.9229 8.58887 20.2222 8.58887 19.3579C8.58887 18.4937 9.28811 17.793 10.1505 17.793Z" fill="white"/>
<path fill-rule="evenodd" clip-rule="evenodd" d="M16.7882 17.793C17.6507 17.793 18.3499 18.4937 18.3499 19.3579C18.3499 20.2222 17.6507 20.9229 16.7882 20.9229C15.9258 20.9229 15.2266 20.2222 15.2266 19.3579C15.2266 18.4937 15.9258 17.793 16.7882 17.793Z" fill="white"/>
<path fill-rule="evenodd" clip-rule="evenodd" d="M23.0343 17.793C23.8968 17.793 24.596 18.4937 24.596 19.3579C24.596 20.2222 23.8968 20.9229 23.0343 20.9229C22.1719 20.9229 21.4727 20.2222 21.4727 19.3579C21.4727 18.4937 22.1719 17.793 23.0343 17.793Z" fill="white"/>
<path fill-rule="evenodd" clip-rule="evenodd" d="M36.3086 16.6195C36.3086 13.3785 38.9306 10.751 42.1649 10.751H42.7017C47.1489 10.751 50.7541 14.3637 50.7541 18.8202C50.7541 24.087 46.4934 28.3566 41.2376 28.3566H38.2345C37.171 28.3566 36.3086 27.4924 36.3086 26.4266V16.6195Z" fill="white"/>
<defs>
<linearGradient id="paint0_linear_161_4983" x1="70.0098" y1="0" x2="70.0098" y2="40" gradientUnits="userSpaceOnUse">
<stop stop-color="#526394"/>
<stop offset="1" stop-color="#2D457C"/>
</linearGradient>
<linearGradient id="paint1_linear_161_4983" x1="27.3291" y1="0.1875" x2="27.3291" y2="38.5287" gradientUnits="userSpaceOnUse">
<stop stop-color="#FFA67E"/>
<stop offset="1" stop-color="#FF7133"/>
</linearGradient>
<linearGradient id="paint2_linear_161_4983" x1="0" y1="0.1875" x2="0" y2="38.5287" gradientUnits="userSpaceOnUse">
<stop stop-color="#526394"/>
<stop offset="1" stop-color="#2D457C"/>
</linearGradient>
</defs>
</svg>
