<svg width="64" height="41" viewBox="0 0 64 41" fill="none" xmlns="http://www.w3.org/2000/svg">
<path fill-rule="evenodd" clip-rule="evenodd" d="M41.5584 0C34.673 0 29.0908 5.56949 29.0908 12.4393V37.3179C29.0908 39.1498 30.5794 40.6351 32.4155 40.6351H42.3896C54.3248 40.6351 64 30.9818 64 19.0736V18.2443C64 8.16848 55.8134 0 45.7143 0H41.5584ZM44.8832 11.1958C41.4405 11.1958 38.6494 13.9805 38.6494 17.4155V27.8093C38.6494 28.9388 39.5674 29.8548 40.6995 29.8548H43.8962C49.4908 29.8548 54.0261 25.3298 54.0261 19.7478C54.0261 15.0246 50.1886 11.1958 45.4546 11.1958H44.8832Z" fill="url(#paint0_linear_385_6305)"/>
<path fill-rule="evenodd" clip-rule="evenodd" d="M0 12.4393C0 5.56949 5.58215 0 12.4676 0H16.6234C26.7226 0 34.9092 8.16848 34.9092 18.2443V19.0736C34.9092 30.9818 25.234 40.6351 13.2987 40.6351H3.32469C1.48863 40.6351 0 39.1498 0 37.3179V12.4393Z" fill="url(#paint1_linear_385_6305)"/>
<path fill-rule="evenodd" clip-rule="evenodd" d="M10.8049 18.6582C11.723 18.6582 12.4673 19.4008 12.4673 20.3168C12.4673 21.2327 11.723 21.9754 10.8049 21.9754C9.88689 21.9754 9.14258 21.2327 9.14258 20.3168C9.14258 19.4008 9.88689 18.6582 10.8049 18.6582Z" fill="white"/>
<path fill-rule="evenodd" clip-rule="evenodd" d="M17.8704 18.6582C18.7884 18.6582 19.5327 19.4008 19.5327 20.3168C19.5327 21.2327 18.7884 21.9754 17.8704 21.9754C16.9523 21.9754 16.208 21.2327 16.208 20.3168C16.208 19.4008 16.9523 18.6582 17.8704 18.6582Z" fill="white"/>
<path fill-rule="evenodd" clip-rule="evenodd" d="M24.5198 18.6582C25.4378 18.6582 26.1821 19.4008 26.1821 20.3168C26.1821 21.2327 25.4378 21.9754 24.5198 21.9754C23.6017 21.9754 22.8574 21.2327 22.8574 20.3168C22.8574 19.4008 23.6017 18.6582 24.5198 18.6582Z" fill="white"/>
<defs>
<linearGradient id="paint0_linear_385_6305" x1="29.0908" y1="0" x2="29.0908" y2="40.6351" gradientUnits="userSpaceOnUse">
<stop stop-color="#FFA67E"/>
<stop offset="1" stop-color="#FF7133"/>
</linearGradient>
<linearGradient id="paint1_linear_385_6305" x1="0" y1="0" x2="0" y2="40.6351" gradientUnits="userSpaceOnUse">
<stop stop-color="#526394"/>
<stop offset="1" stop-color="#2D457C"/>
</linearGradient>
</defs>
</svg>
