<?xml version="1.0" encoding="utf-8"?>
<!-- Generator: Adobe Illustrator 27.6.1, SVG Export Plug-In . SVG Version: 6.00 Build 0)  -->
<svg version="1.1" id="레이어_1" xmlns="http://www.w3.org/2000/svg" xmlns:xlink="http://www.w3.org/1999/xlink" x="0px"
	 y="0px" viewBox="0 0 16 16" style="enable-background:new 0 0 16 16;" xml:space="preserve">
<style type="text/css">
	.st0{fill-rule:evenodd;clip-rule:evenodd;fill:#ED7743;}
</style>
<path class="st0" d="M8.1,5.7c0-0.7,0-1.3,0-2c0-0.1,0-0.2,0-0.2C8,3.1,7.8,3,7.5,3C7.2,3,7,3.3,7,3.6c0,1.5,0,3,0,4.6
	c0,0.2,0.1,0.4,0.3,0.5c0.9,0.7,1.9,1.5,2.8,2.2c0.3,0.2,0.6,0.2,0.8-0.1c0.2-0.3,0.2-0.6-0.1-0.8C9.9,9.3,9.1,8.6,8.3,8
	C8.2,7.9,8.1,7.8,8.1,7.7C8.1,7,8.1,6.3,8.1,5.7z M0,8c0-4.4,3.6-8,8-8c4.4,0,8,3.6,8,8c0,4.4-3.6,8-8,8C3.6,16,0,12.4,0,8z"/>
</svg>
