<?xml version="1.0" encoding="utf-8"?>
<!-- Generator: Adobe Illustrator 27.6.1, SVG Export Plug-In . SVG Version: 6.00 Build 0)  -->
<svg version="1.1" id="레이어_1" xmlns="http://www.w3.org/2000/svg" xmlns:xlink="http://www.w3.org/1999/xlink" x="0px"
	 y="0px" viewBox="0 0 32 32" style="enable-background:new 0 0 32 32;" xml:space="preserve">
<style type="text/css">
	
		.st0{fill-rule:evenodd;clip-rule:evenodd;fill:url(#SVGID_1_);stroke:url(#SVGID_00000162349483724812901280000015066440725926750372_);stroke-width:2;stroke-linejoin:round;}
</style>
<linearGradient id="SVGID_1_" gradientUnits="userSpaceOnUse" x1="16" y1="25.8898" x2="16" y2="5.8898" gradientTransform="matrix(1 0 0 -1 0 31.8898)">
	<stop  offset="0" style="stop-color:#FF8125"/>
	<stop  offset="1" style="stop-color:#FF4A10"/>
</linearGradient>
<linearGradient id="SVGID_00000017518720024845893690000011753911486631758267_" gradientUnits="userSpaceOnUse" x1="16" y1="25.8898" x2="16" y2="5.8898" gradientTransform="matrix(1 0 0 -1 0 31.8898)">
	<stop  offset="0" style="stop-color:#FF8125"/>
	<stop  offset="1" style="stop-color:#FF4A10"/>
</linearGradient>
<path style="fill-rule:evenodd;clip-rule:evenodd;fill:url(#SVGID_1_);stroke:url(#SVGID_00000017518720024845893690000011753911486631758267_);stroke-width:2;stroke-linejoin:round;" d="
	M4.2,12.3C4,8.4,7.7,5.5,11.5,6.3C14.5,7,16,9.1,16,9.1s1.5-2.1,4.5-2.8c3.8-0.9,7.5,2.1,7.3,5.9c-0.1,1.4-0.4,2.9-1.2,4.3
	c-2.2,3.7-7.4,7.3-9.6,8.8c-0.6,0.4-1.4,0.4-2.1,0c-2.2-1.5-7.4-5.2-9.6-8.8C4.6,15.1,4.2,13.7,4.2,12.3z"/>
</svg>
