<?xml version="1.0" encoding="utf-8"?>
<!-- Generator: Adobe Illustrator 27.6.1, SVG Export Plug-In . SVG Version: 6.00 Build 0)  -->
<svg version="1.1" id="레이어_1" xmlns="http://www.w3.org/2000/svg" xmlns:xlink="http://www.w3.org/1999/xlink" x="0px"
	 y="0px" viewBox="0 0 40 40" style="enable-background:new 0 0 40 40;" xml:space="preserve">
<style type="text/css">
	
		.st0{fill-rule:evenodd;clip-rule:evenodd;fill:url(#SVGID_1_);stroke:url(#SVGID_00000124135177356555230260000011875280873401043616_);stroke-width:2.5;stroke-linejoin:round;}
</style>
<linearGradient id="SVGID_1_" gradientUnits="userSpaceOnUse" x1="20" y1="32.3898" x2="20" y2="7.3898" gradientTransform="matrix(1 0 0 -1 0 39.8898)">
	<stop  offset="0" style="stop-color:#FF8125"/>
	<stop  offset="1" style="stop-color:#FF4A10"/>
</linearGradient>
<linearGradient id="SVGID_00000051353029604626204150000016601049639998629305_" gradientUnits="userSpaceOnUse" x1="20" y1="32.3898" x2="20" y2="7.3898" gradientTransform="matrix(1 0 0 -1 0 39.8898)">
	<stop  offset="0" style="stop-color:#FF8125"/>
	<stop  offset="1" style="stop-color:#FF4A10"/>
</linearGradient>
<path style="fill-rule:evenodd;clip-rule:evenodd;fill:url(#SVGID_1_);stroke:url(#SVGID_00000051353029604626204150000016601049639998629305_);stroke-width:2.5;stroke-linejoin:round;" d="
	M5.2,15.3C5,10.5,9.6,6.8,14.4,7.9c3.7,0.8,5.6,3.5,5.6,3.5s1.9-2.6,5.6-3.5c4.7-1.1,9.4,2.6,9.2,7.4c-0.1,1.7-0.5,3.6-1.5,5.3
	c-2.7,4.6-9.2,9.2-12,11c-0.8,0.5-1.8,0.5-2.6,0c-2.8-1.8-9.2-6.4-12-11C5.7,18.9,5.3,17.1,5.2,15.3z"/>
</svg>
