<?xml version="1.0" encoding="utf-8"?>
<!-- Generator: Adobe Illustrator 27.6.1, SVG Export Plug-In . SVG Version: 6.00 Build 0)  -->
<svg version="1.1" id="레이어_1" xmlns="http://www.w3.org/2000/svg" xmlns:xlink="http://www.w3.org/1999/xlink" x="0px"
	 y="0px" viewBox="0 0 24 24" style="enable-background:new 0 0 24 24;" xml:space="preserve">
<style type="text/css">
	.st0{fill:none;stroke:#D8DADD;stroke-width:1.5;stroke-linejoin:round;}
</style>
<path class="st0" d="M3.1,9.2C3,6.3,5.8,4.1,8.6,4.8l0,0C10.8,5.3,12,6.8,12,6.8s1.1-1.6,3.4-2.1l0,0c2.8-0.6,5.6,1.5,5.5,4.5
	c0,1-0.3,2.1-0.9,3.2c-1.6,2.7-5.5,5.5-7.2,6.6c-0.5,0.3-1.1,0.3-1.5,0c-1.7-1.1-5.5-3.9-7.2-6.6C3.4,11.3,3.2,10.2,3.1,9.2z"/>
</svg>
