<svg width="36" height="36" viewBox="0 0 36 36" fill="none" xmlns="http://www.w3.org/2000/svg">
<circle cx="18" cy="18" r="18" fill="#EEEEEE"/>
<mask id="mask0_214_5983" style="mask-type:luminance" maskUnits="userSpaceOnUse" x="0" y="0" width="36" height="36">
<circle cx="18" cy="18" r="18" fill="white"/>
</mask>
<g mask="url(#mask0_214_5983)">
<circle cx="18" cy="18" r="18" fill="#E7EDFD"/>
<mask id="mask1_214_5983" style="mask-type:luminance" maskUnits="userSpaceOnUse" x="0" y="0" width="36" height="36">
<circle cx="18" cy="18" r="18" fill="white"/>
</mask>
<g mask="url(#mask1_214_5983)">
<path fill-rule="evenodd" clip-rule="evenodd" d="M24.5932 41.2846C24.5595 41.3293 24.5096 41.3628 24.4644 41.3978C24.4168 41.4343 24.3677 41.4653 24.3179 41.4932C24.4632 41.331 24.5883 41.1542 24.6952 40.9651C24.724 40.9783 24.7529 40.9912 24.7819 41.0021C24.7195 41.0966 24.6612 41.1943 24.5932 41.2846M11.4065 41.2846C11.3385 41.1943 11.2802 41.0966 11.2178 41.0021C11.2468 40.9912 11.2757 40.9783 11.3046 40.9651C11.4114 41.1542 11.5365 41.331 11.6818 41.4932C11.632 41.4653 11.5829 41.4343 11.5355 41.3978C11.4901 41.3628 11.4402 41.3293 11.4065 41.2846M16.635 41.2491C16.6338 41.2952 16.6142 41.3487 16.5764 41.4049C16.3568 41.7317 16.0225 41.8405 15.5992 41.8961C15.5837 41.8886 15.566 41.88 15.548 41.8713C15.7239 41.5369 16.2568 41.2343 16.635 41.2491M14.6649 41.8013C14.5978 41.8274 14.532 41.8701 14.4633 41.8758C14.3213 41.8874 14.1776 41.8793 14.0058 41.8793C13.8806 41.8733 13.7351 41.8734 13.5879 41.8603C13.5878 41.8222 13.5924 41.7869 13.6072 41.7711C13.8401 41.5209 14.3022 41.5214 14.6336 41.7196C14.6435 41.7474 14.6532 41.7754 14.6649 41.8013M11.959 41.1178C12.1606 41.1039 12.3962 41.2242 12.5549 41.3922C12.6247 41.4927 12.6752 41.6032 12.701 41.7195C12.4214 41.6921 12.0466 41.3926 11.959 41.1178M23.2983 41.7195C23.3242 41.6032 23.3746 41.4927 23.4444 41.3922C23.6031 41.2242 23.8387 41.1039 24.0403 41.1178C23.9528 41.3926 23.578 41.6921 23.2983 41.7195M21.3652 41.7196C21.6967 41.5214 22.1588 41.5209 22.3918 41.7711C22.4065 41.7869 22.4111 41.8222 22.411 41.8603C22.2639 41.8734 22.1182 41.8733 21.9931 41.8793C21.8212 41.8793 21.6776 41.8874 21.5357 41.8758C21.4669 41.8701 21.4011 41.8274 21.334 41.8013C21.3457 41.7754 21.3554 41.7474 21.3652 41.7196M20.4523 41.8712C20.4342 41.8799 20.4165 41.8886 20.4011 41.896C19.9777 41.8404 19.6434 41.7316 19.4238 41.4049C19.386 41.3487 19.3664 41.2951 19.3652 41.2491C19.7435 41.2342 20.2763 41.5369 20.4523 41.8712M32.5084 26.0894C32.2614 25.59 31.9775 25.0903 31.619 24.6681C30.7953 23.6979 29.7345 23.037 28.6083 22.4751C28.6016 22.4476 28.5959 22.4204 28.5924 22.3943C28.4932 21.6494 28.4174 20.9013 28.3316 20.1545C28.2112 19.1076 27.8786 18.1135 27.5093 17.1383C27.2745 16.5181 26.9227 15.942 26.6196 15.348C26.0696 14.2699 25.2377 13.4356 24.2803 12.7276C23.7149 12.3096 23.1094 11.943 22.5032 11.5851C22.3069 11.4692 22.0503 11.4567 21.8226 11.3924C21.4346 11.2831 21.059 11.1616 20.7437 10.9138C20.6815 10.8277 20.6255 10.7334 20.5729 10.6329C20.4182 10.3368 20.1958 10.1518 19.8514 10.1671C19.7747 10.1704 19.7163 10.1599 19.6688 10.136C19.6678 10.1341 19.6661 10.1325 19.6652 10.1307C19.4141 9.64585 19.1743 9.15514 18.9287 8.66754C18.7985 8.39685 18.6639 8.12869 18.5175 7.86731C18.3846 7.63017 18.2063 7.5108 18.0263 7.50138C18.0175 7.5008 18.0088 7.50011 18 7.5C17.9912 7.50011 17.9824 7.5008 17.9736 7.50138C17.7937 7.5108 17.6154 7.63017 17.4825 7.86731C17.3361 8.12858 17.2015 8.39685 17.0713 8.66742C16.8257 9.15503 16.5858 9.64585 16.3349 10.1307C16.3338 10.1325 16.3322 10.1341 16.3312 10.136C16.2836 10.1599 16.2253 10.1704 16.1485 10.1671C15.8041 10.1518 15.5818 10.3368 15.427 10.6329C15.3744 10.7334 15.3184 10.8277 15.2563 10.9138C14.941 11.1616 14.5653 11.2831 14.1774 11.3924C13.9496 11.4567 13.693 11.4692 13.4968 11.5851C12.8905 11.943 12.285 12.3096 11.7196 12.7276C10.7622 13.4356 9.93031 14.2699 9.38032 15.348C9.07735 15.942 8.72543 16.5181 8.49059 17.1383C8.12133 18.1135 7.78871 19.1076 7.66842 20.1545C7.58248 20.9013 7.50677 21.6494 7.40761 22.3943C7.40405 22.4204 7.39842 22.4476 7.39164 22.4751C6.26558 23.037 5.20478 23.6979 4.381 24.6681C4.02242 25.0903 3.73852 25.59 3.4915 26.0894C3.1019 26.8772 2.95369 27.7303 3.0124 28.6101C3.06904 29.4599 3.26194 30.2748 3.65281 31.017C3.76598 31.4078 3.94601 31.7769 4.21084 32.1101C4.6904 32.7135 5.29945 33.1469 6.05728 33.2802C6.76938 33.4053 7.50332 33.4731 8.18544 33.1105C8.33951 33.0286 8.39707 33.0858 8.47611 33.2126C8.63156 33.462 8.82045 33.6908 8.97337 33.9416C9.06678 34.0949 9.17719 34.2723 9.18041 34.4407C9.19752 35.3293 9.19442 36.2188 9.1734 37.1072C9.16604 37.4184 9.2899 37.6328 9.54301 37.7578C9.72396 37.8472 9.7428 37.9699 9.7682 38.1412C9.87171 38.8427 9.90021 39.5476 10.1753 40.2308C10.6586 41.4316 11.541 41.9941 12.622 42.1654C12.7976 42.2418 12.9831 42.3031 13.1687 42.3291C13.7532 42.4108 14.3418 42.4899 14.9304 42.5055C15.2658 42.5144 15.6023 42.3727 15.9422 42.3416C16.6893 42.2734 17.2221 41.8777 17.4766 41.2112C17.6588 40.7338 17.7134 40.1956 17.7522 39.6791C17.7863 39.2263 17.7153 38.7662 17.6988 38.309C17.6929 38.1498 17.8432 37.9202 18 37.7996C18.1567 37.9202 18.307 38.1498 18.3012 38.309C18.2847 38.7662 18.2136 39.2263 18.2477 39.6791C18.2866 40.1956 18.3411 40.7338 18.5235 41.2112C18.7778 41.8777 19.3107 42.2734 20.0577 42.3416C20.3976 42.3727 20.7341 42.5144 21.0695 42.5055C21.6582 42.4899 22.2467 42.4108 22.8313 42.3291C23.0168 42.3031 23.2025 42.2418 23.3779 42.1654C24.4589 41.9941 25.3414 41.4316 25.8248 40.2308C26.0997 39.5476 26.1282 38.8427 26.2318 38.1412C26.2571 37.9699 26.2761 37.8472 26.4569 37.7578C26.7101 37.6328 26.834 37.4184 26.8266 37.1072C26.8055 36.2188 26.8024 35.3293 26.8195 34.4407C26.8229 34.2723 26.9332 34.0949 27.0267 33.9416C27.1796 33.6908 27.3685 33.462 27.5238 33.2126C27.6029 33.0858 27.6604 33.0286 27.8145 33.1105C28.4967 33.4731 29.2307 33.4053 29.9426 33.2802C30.7005 33.1469 31.3095 32.7135 31.7891 32.1101C32.0539 31.7769 32.234 31.4078 32.3471 31.017C32.7381 30.2748 32.9309 29.4599 32.9876 28.6101C33.0462 27.7303 32.898 26.8772 32.5084 26.0894" fill="#7F90BF"/>
</g>
</g>
</svg>
