<?xml version="1.0" encoding="utf-8"?>
<!-- Generator: Adobe Illustrator 27.6.1, SVG Export Plug-In . SVG Version: 6.00 Build 0)  -->
<svg version="1.1" id="레이어_1" xmlns="http://www.w3.org/2000/svg" xmlns:xlink="http://www.w3.org/1999/xlink" x="0px"
	 y="0px" viewBox="0 0 32 32" style="enable-background:new 0 0 32 32;" xml:space="preserve">
<style type="text/css">
	.st0{fill:none;stroke:#D8DADD;stroke-width:2;stroke-linejoin:round;}
</style>
<path class="st0" d="M4.2,12.3C4,8.4,7.7,5.5,11.5,6.3l0,0C14.5,7,16,9.1,16,9.1s1.5-2.1,4.5-2.8l0,0c3.8-0.9,7.5,2.1,7.3,5.9
	c-0.1,1.4-0.4,2.9-1.2,4.3c-2.2,3.7-7.4,7.3-9.6,8.8c-0.6,0.4-1.4,0.4-2.1,0c-2.2-1.5-7.4-5.2-9.6-8.8C4.6,15.1,4.2,13.7,4.2,12.3z"
	/>
</svg>
