<?xml version="1.0" encoding="utf-8"?>
<!-- Generator: Adobe Illustrator 27.6.1, SVG Export Plug-In . SVG Version: 6.00 Build 0)  -->
<svg version="1.1" id="레이어_1" xmlns="http://www.w3.org/2000/svg" xmlns:xlink="http://www.w3.org/1999/xlink" x="0px"
	 y="0px" viewBox="0 0 159 40" style="enable-background:new 0 0 159 40;" xml:space="preserve">
<style type="text/css">
	.st0{fill-rule:evenodd;clip-rule:evenodd;fill:#FFFFFF;filter:url(#Adobe_OpacityMaskFilter);}
	.st1{mask:url(#mask0_139_3880_00000175317597430309906890000014605201744179677837_);}
	.st2{fill-rule:evenodd;clip-rule:evenodd;fill:url(#SVGID_1_);}
	.st3{fill-rule:evenodd;clip-rule:evenodd;fill:url(#SVGID_00000178170902027777796460000005610803905618743187_);}
	.st4{fill-rule:evenodd;clip-rule:evenodd;fill:url(#SVGID_00000096034551200372212400000017241760424853286585_);}
	.st5{fill-rule:evenodd;clip-rule:evenodd;fill:#FFFFFF;}
</style>
<defs>
	<filter id="Adobe_OpacityMaskFilter" filterUnits="userSpaceOnUse" x="70" y="0" width="89" height="40">
		<feColorMatrix  type="matrix" values="1 0 0 0 0  0 1 0 0 0  0 0 1 0 0  0 0 0 1 0"/>
	</filter>
</defs>
<mask maskUnits="userSpaceOnUse" x="70" y="0" width="89" height="40" id="mask0_139_3880_00000175317597430309906890000014605201744179677837_">
	<path class="st0" d="M145.6,0c-0.4,0-0.8,0.2-1.1,0.5l0,0c-0.3,0.3-0.5,0.7-0.5,1.1l0,0v17.1c0,0.5,0.2,0.9,0.5,1.2l0,0
		c0.3,0.3,0.7,0.4,1.1,0.4l0,0h7c0.4,0,0.8-0.1,1.1-0.4l0,0c0.3-0.3,0.5-0.7,0.5-1.2l0,0v-4.6h3.1c0.4,0,0.8-0.2,1.1-0.5l0,0
		c0.3-0.3,0.5-0.7,0.5-1.1l0,0V7.2c0-0.5-0.2-0.9-0.5-1.2l0,0c-0.3-0.3-0.7-0.5-1.1-0.5l0,0h-3.1V1.6c0-0.4-0.2-0.8-0.5-1.1l0,0
		c-0.3-0.3-0.7-0.5-1.1-0.5l0,0H145.6z M99.7,0c-0.4,0-0.8,0.2-1.1,0.5l0,0c-0.3,0.3-0.5,0.7-0.5,1.1l0,0v17.1
		c0,0.5,0.2,0.9,0.5,1.2l0,0c0.3,0.3,0.7,0.4,1.1,0.4l0,0h7c0.4,0,0.8-0.1,1.1-0.4l0,0c0.3-0.3,0.5-0.7,0.5-1.2l0,0v-4.6h3.1
		c0.4,0,0.8-0.2,1.1-0.5l0,0c0.3-0.3,0.5-0.7,0.5-1.1l0,0V7.2c0-0.5-0.2-0.9-0.5-1.2l0,0c-0.3-0.3-0.7-0.5-1.1-0.5l0,0h-3.1V1.6
		c0-0.4-0.2-0.8-0.5-1.1l0,0c-0.3-0.3-0.7-0.5-1.1-0.5l0,0H99.7z M117.6,0.5c-0.4,0-0.8,0.2-1.2,0.5l0,0c-0.3,0.3-0.5,0.7-0.5,1.1
		l0,0v12.7c0,1.8,0.5,3.1,1.4,3.9l0,0c0.9,0.8,2.2,1.2,3.9,1.2l0,0h17.1c0.4,0,0.8-0.2,1.1-0.5l0,0c0.3-0.3,0.5-0.7,0.5-1.1l0,0v-4
		c0-0.5-0.2-0.9-0.5-1.2l0,0c-0.3-0.3-0.7-0.5-1.1-0.5l0,0h-12.6V7.7h12.2c0.4,0,0.8-0.2,1.1-0.5l0,0c0.3-0.3,0.5-0.7,0.5-1.1l0,0
		v-4c0-0.5-0.2-0.9-0.5-1.2l0,0c-0.3-0.3-0.7-0.5-1.1-0.5l0,0H117.6z M71.6,0.5c-0.4,0-0.8,0.2-1.2,0.5l0,0C70.2,1.3,70,1.6,70,2.1
		l0,0v12.7c0,1.8,0.5,3.1,1.4,3.9l0,0c0.9,0.8,2.2,1.2,3.9,1.2l0,0h17.1c0.4,0,0.8-0.2,1.1-0.5l0,0c0.3-0.3,0.5-0.7,0.5-1.1l0,0v-4
		c0-0.5-0.2-0.9-0.5-1.2l0,0c-0.3-0.3-0.7-0.5-1.1-0.5l0,0H79.7V7.7h12.2c0.4,0,0.8-0.2,1.1-0.5l0,0c0.3-0.3,0.5-0.7,0.5-1.1l0,0v-4
		c0-0.5-0.2-0.9-0.5-1.2l0,0c-0.3-0.3-0.7-0.5-1.1-0.5l0,0H71.6z M118.9,22c-0.4,0-0.8,0.2-1.2,0.5l0,0c-0.3,0.3-0.5,0.7-0.5,1.1
		l0,0v11.3c0,1.8,0.5,3.1,1.4,3.9l0,0c0.9,0.8,2.2,1.3,3.9,1.3l0,0H149c1.7,0,3-0.4,3.9-1.3l0,0c0.9-0.8,1.4-2.1,1.4-3.9l0,0V23.6
		c0-0.4-0.2-0.8-0.5-1.1l0,0c-0.3-0.3-0.7-0.5-1.2-0.5l0,0H118.9z M127.6,32.5H144v-3h-16.4V32.5z M73,22c-0.4,0-0.8,0.2-1.2,0.5
		l0,0c-0.3,0.3-0.5,0.7-0.5,1.1l0,0v11.3c0,1.8,0.5,3.1,1.4,3.9l0,0c0.9,0.8,2.2,1.3,3.9,1.3l0,0h26.5c1.7,0,3-0.4,3.9-1.3l0,0
		c0.9-0.8,1.4-2.1,1.4-3.9l0,0V23.6c0-0.4-0.2-0.8-0.5-1.1l0,0c-0.3-0.3-0.7-0.5-1.2-0.5l0,0H73z M81.7,32.5H98v-3H81.7V32.5z"/>
</mask>
<g class="st1">
	
		<linearGradient id="SVGID_1_" gradientUnits="userSpaceOnUse" x1="114.5049" y1="39.8898" x2="114.5049" y2="-0.1102" gradientTransform="matrix(1 0 0 -1 0 39.8898)">
		<stop  offset="0" style="stop-color:#526394"/>
		<stop  offset="1" style="stop-color:#2D457C"/>
	</linearGradient>
	<path class="st2" d="M145.6,0c-0.4,0-0.8,0.2-1.1,0.5l0,0c-0.3,0.3-0.5,0.7-0.5,1.1l0,0v17.1c0,0.5,0.2,0.9,0.5,1.2l0,0
		c0.3,0.3,0.7,0.4,1.1,0.4l0,0h7c0.4,0,0.8-0.1,1.1-0.4l0,0c0.3-0.3,0.5-0.7,0.5-1.2l0,0v-4.6h3.1c0.4,0,0.8-0.2,1.1-0.5l0,0
		c0.3-0.3,0.5-0.7,0.5-1.1l0,0V7.2c0-0.5-0.2-0.9-0.5-1.2l0,0c-0.3-0.3-0.7-0.5-1.1-0.5l0,0h-3.1V1.6c0-0.4-0.2-0.8-0.5-1.1l0,0
		c-0.3-0.3-0.7-0.5-1.1-0.5l0,0H145.6z M99.7,0c-0.4,0-0.8,0.2-1.1,0.5l0,0c-0.3,0.3-0.5,0.7-0.5,1.1l0,0v17.1
		c0,0.5,0.2,0.9,0.5,1.2l0,0c0.3,0.3,0.7,0.4,1.1,0.4l0,0h7c0.4,0,0.8-0.1,1.1-0.4l0,0c0.3-0.3,0.5-0.7,0.5-1.2l0,0v-4.6h3.1
		c0.4,0,0.8-0.2,1.1-0.5l0,0c0.3-0.3,0.5-0.7,0.5-1.1l0,0V7.2c0-0.5-0.2-0.9-0.5-1.2l0,0c-0.3-0.3-0.7-0.5-1.1-0.5l0,0h-3.1V1.6
		c0-0.4-0.2-0.8-0.5-1.1l0,0c-0.3-0.3-0.7-0.5-1.1-0.5l0,0H99.7z M117.6,0.5c-0.4,0-0.8,0.2-1.2,0.5l0,0c-0.3,0.3-0.5,0.7-0.5,1.1
		l0,0v12.7c0,1.8,0.5,3.1,1.4,3.9l0,0c0.9,0.8,2.2,1.2,3.9,1.2l0,0h17.1c0.4,0,0.8-0.2,1.1-0.5l0,0c0.3-0.3,0.5-0.7,0.5-1.1l0,0v-4
		c0-0.5-0.2-0.9-0.5-1.2l0,0c-0.3-0.3-0.7-0.5-1.1-0.5l0,0h-12.6V7.7h12.2c0.4,0,0.8-0.2,1.1-0.5l0,0c0.3-0.3,0.5-0.7,0.5-1.1l0,0
		v-4c0-0.5-0.2-0.9-0.5-1.2l0,0c-0.3-0.3-0.7-0.5-1.1-0.5l0,0H117.6z M71.6,0.5c-0.4,0-0.8,0.2-1.2,0.5l0,0C70.2,1.3,70,1.6,70,2.1
		l0,0v12.7c0,1.8,0.5,3.1,1.4,3.9l0,0c0.9,0.8,2.2,1.2,3.9,1.2l0,0h17.1c0.4,0,0.8-0.2,1.1-0.5l0,0c0.3-0.3,0.5-0.7,0.5-1.1l0,0v-4
		c0-0.5-0.2-0.9-0.5-1.2l0,0c-0.3-0.3-0.7-0.5-1.1-0.5l0,0H79.7V7.7h12.2c0.4,0,0.8-0.2,1.1-0.5l0,0c0.3-0.3,0.5-0.7,0.5-1.1l0,0v-4
		c0-0.5-0.2-0.9-0.5-1.2l0,0c-0.3-0.3-0.7-0.5-1.1-0.5l0,0H71.6z M118.9,22c-0.4,0-0.8,0.2-1.2,0.5l0,0c-0.3,0.3-0.5,0.7-0.5,1.1
		l0,0v11.3c0,1.8,0.5,3.1,1.4,3.9l0,0c0.9,0.8,2.2,1.3,3.9,1.3l0,0H149c1.7,0,3-0.4,3.9-1.3l0,0c0.9-0.8,1.4-2.1,1.4-3.9l0,0V23.6
		c0-0.4-0.2-0.8-0.5-1.1l0,0c-0.3-0.3-0.7-0.5-1.2-0.5l0,0H118.9z M127.6,32.5H144v-3h-16.4V32.5z M73,22c-0.4,0-0.8,0.2-1.2,0.5
		l0,0c-0.3,0.3-0.5,0.7-0.5,1.1l0,0v11.3c0,1.8,0.5,3.1,1.4,3.9l0,0c0.9,0.8,2.2,1.3,3.9,1.3l0,0h26.5c1.7,0,3-0.4,3.9-1.3l0,0
		c0.9-0.8,1.4-2.1,1.4-3.9l0,0V23.6c0-0.4-0.2-0.8-0.5-1.1l0,0c-0.3-0.3-0.7-0.5-1.2-0.5l0,0H73z M81.7,32.5H98v-3H81.7V32.5z"/>
</g>
<linearGradient id="SVGID_00000013899907203949758950000010132693388719781271_" gradientUnits="userSpaceOnUse" x1="43.7267" y1="39.7023" x2="43.7267" y2="1.3611" gradientTransform="matrix(1 0 0 -1 0 39.8898)">
	<stop  offset="0" style="stop-color:#FFA67E"/>
	<stop  offset="1" style="stop-color:#FF7133"/>
</linearGradient>
<path style="fill-rule:evenodd;clip-rule:evenodd;fill:url(#SVGID_00000013899907203949758950000010132693388719781271_);" d="
	M27.3,11.9c0-6.5,5.2-11.7,11.7-11.7h3.9c9.5,0,17.2,7.7,17.2,17.2v0.8c0,11.2-9.1,20.3-20.3,20.3h-9.4c-1.7,0-3.1-1.4-3.1-3.1V11.9
	z"/>
<linearGradient id="SVGID_00000168097252644453142950000003750435634951665056_" gradientUnits="userSpaceOnUse" x1="16.3976" y1="39.7023" x2="16.3976" y2="1.3611" gradientTransform="matrix(1 0 0 -1 0 39.8898)">
	<stop  offset="0" style="stop-color:#526394"/>
	<stop  offset="1" style="stop-color:#2D457C"/>
</linearGradient>
<path style="fill-rule:evenodd;clip-rule:evenodd;fill:url(#SVGID_00000168097252644453142950000003750435634951665056_);" d="
	M0,11.9C0,5.4,5.2,0.2,11.7,0.2h3.9c9.5,0,17.2,7.7,17.2,17.2v0.8c0,11.2-9.1,20.3-20.3,20.3H3.1c-1.7,0-3.1-1.4-3.1-3.1V11.9z"/>
<path class="st5" d="M10.2,17.8c0.9,0,1.6,0.7,1.6,1.6c0,0.9-0.7,1.6-1.6,1.6c-0.9,0-1.6-0.7-1.6-1.6C8.6,18.5,9.3,17.8,10.2,17.8"
	/>
<path class="st5" d="M16.8,17.8c0.9,0,1.6,0.7,1.6,1.6c0,0.9-0.7,1.6-1.6,1.6c-0.9,0-1.6-0.7-1.6-1.6C15.2,18.5,15.9,17.8,16.8,17.8
	"/>
<path class="st5" d="M23,17.8c0.9,0,1.6,0.7,1.6,1.6c0,0.9-0.7,1.6-1.6,1.6c-0.9,0-1.6-0.7-1.6-1.6C21.5,18.5,22.2,17.8,23,17.8"/>
<path class="st5" d="M36.3,16.6c0-3.2,2.6-5.9,5.9-5.9h0.5c4.4,0,8.1,3.6,8.1,8.1c0,5.3-4.3,9.5-9.5,9.5h-3c-1.1,0-1.9-0.9-1.9-1.9
	V16.6z"/>
</svg>
