<?xml version="1.0" encoding="utf-8"?>
<!-- Generator: Adobe Illustrator 27.6.1, SVG Export Plug-In . SVG Version: 6.00 Build 0)  -->
<svg version="1.1" id="레이어_1" xmlns="http://www.w3.org/2000/svg" xmlns:xlink="http://www.w3.org/1999/xlink" x="0px"
	 y="0px" viewBox="0 0 32 32" style="enable-background:new 0 0 32 32;" xml:space="preserve">
<style type="text/css">
	.st0{fill:#EEEEEE;}
	.st1{fill:#FFFFFF;filter:url(#Adobe_OpacityMaskFilter);}
	.st2{mask:url(#mask0_125_3888_00000114782290101644948780000008817928354031694511_);}
	.st3{fill:#F4F6F8;}
	.st4{fill:#FFFFFF;filter:url(#Adobe_OpacityMaskFilter_00000134226802807489270260000012495994006372099494_);}
	.st5{mask:url(#mask1_125_3888_00000027573383941414630320000009654040912591550365_);}
	.st6{fill-rule:evenodd;clip-rule:evenodd;fill:#D8DADD;}
</style>
<circle class="st0" cx="16" cy="16" r="16"/>
<defs>
	<filter id="Adobe_OpacityMaskFilter" filterUnits="userSpaceOnUse" x="0" y="0" width="32" height="37.8">
		<feColorMatrix  type="matrix" values="1 0 0 0 0  0 1 0 0 0  0 0 1 0 0  0 0 0 1 0"/>
	</filter>
</defs>
<mask maskUnits="userSpaceOnUse" x="0" y="0" width="32" height="37.8" id="mask0_125_3888_00000114782290101644948780000008817928354031694511_">
	<circle class="st1" cx="16" cy="16" r="16"/>
</mask>
<g class="st2">
	<circle class="st3" cx="16" cy="16" r="16"/>
	<defs>
		
			<filter id="Adobe_OpacityMaskFilter_00000118365698158446542330000013043379085023197614_" filterUnits="userSpaceOnUse" x="2.7" y="6.7" width="26.7" height="31.1">
			<feColorMatrix  type="matrix" values="1 0 0 0 0  0 1 0 0 0  0 0 1 0 0  0 0 0 1 0"/>
		</filter>
	</defs>
	
		<mask maskUnits="userSpaceOnUse" x="2.7" y="6.7" width="26.7" height="31.1" id="mask1_125_3888_00000027573383941414630320000009654040912591550365_">
		
			<circle style="fill:#FFFFFF;filter:url(#Adobe_OpacityMaskFilter_00000118365698158446542330000013043379085023197614_);" cx="16" cy="16" r="16"/>
	</mask>
	<g class="st5">
		<path class="st6" d="M21.9,36.7c0,0-0.1,0.1-0.1,0.1c0,0-0.1,0.1-0.1,0.1c0.1-0.1,0.2-0.3,0.3-0.5c0,0,0.1,0,0.1,0
			C22,36.5,21.9,36.6,21.9,36.7z M10.1,36.7c-0.1-0.1-0.1-0.2-0.2-0.3c0,0,0.1,0,0.1,0c0.1,0.2,0.2,0.3,0.3,0.5c0,0-0.1-0.1-0.1-0.1
			C10.2,36.8,10.2,36.7,10.1,36.7z M14.8,36.7c0,0,0,0.1-0.1,0.1c-0.2,0.3-0.5,0.4-0.9,0.4c0,0,0,0,0,0C14,36.9,14.5,36.7,14.8,36.7
			z M13,37.2c-0.1,0-0.1,0.1-0.2,0.1c-0.1,0-0.3,0-0.4,0c-0.1,0-0.2,0-0.4,0c0,0,0-0.1,0-0.1C12.3,36.9,12.7,36.9,13,37.2
			C13,37.1,13,37.1,13,37.2z M10.6,36.5c0.2,0,0.4,0.1,0.5,0.2c0.1,0.1,0.1,0.2,0.1,0.3C11,37.1,10.7,36.8,10.6,36.5z M20.7,37.1
			c0-0.1,0.1-0.2,0.1-0.3c0.1-0.1,0.4-0.3,0.5-0.2C21.3,36.8,21,37.1,20.7,37.1z M19,37.1c0.3-0.2,0.7-0.2,0.9,0c0,0,0,0,0,0.1
			c-0.1,0-0.3,0-0.4,0c-0.2,0-0.3,0-0.4,0C19.1,37.2,19,37.2,19,37.1C19,37.1,19,37.1,19,37.1z M18.2,37.2
			C18.2,37.2,18.1,37.2,18.2,37.2c-0.4,0-0.7-0.1-0.9-0.4c0,0-0.1-0.1-0.1-0.1C17.5,36.7,18,36.9,18.2,37.2z M28.9,23.2
			c-0.2-0.4-0.5-0.9-0.8-1.3c-0.7-0.9-1.7-1.4-2.7-1.9c0,0,0,0,0-0.1c-0.1-0.7-0.2-1.3-0.2-2c-0.1-0.9-0.4-1.8-0.7-2.7
			c-0.2-0.6-0.5-1.1-0.8-1.6c-0.5-1-1.2-1.7-2.1-2.3c-0.5-0.4-1-0.7-1.6-1c-0.2-0.1-0.4-0.1-0.6-0.2c-0.3-0.1-0.7-0.2-1-0.4
			c-0.1-0.1-0.1-0.2-0.2-0.2C18.1,9.2,18,9,17.6,9c-0.1,0-0.1,0-0.2,0c0,0,0,0,0,0c-0.2-0.4-0.4-0.9-0.7-1.3
			c-0.1-0.2-0.2-0.5-0.4-0.7c-0.1-0.2-0.3-0.3-0.4-0.3c0,0,0,0,0,0c0,0,0,0,0,0c-0.2,0-0.3,0.1-0.4,0.3c-0.1,0.2-0.2,0.5-0.4,0.7
			C15,8.1,14.7,8.6,14.5,9c0,0,0,0,0,0c0,0-0.1,0-0.2,0c-0.3,0-0.5,0.2-0.6,0.4c0,0.1-0.1,0.2-0.2,0.2c-0.3,0.2-0.6,0.3-1,0.4
			c-0.2,0.1-0.4,0.1-0.6,0.2c-0.5,0.3-1.1,0.6-1.6,1c-0.9,0.6-1.6,1.4-2.1,2.3c-0.3,0.5-0.6,1-0.8,1.6c-0.3,0.9-0.6,1.8-0.7,2.7
			c-0.1,0.7-0.1,1.3-0.2,2c0,0,0,0,0,0.1c-1,0.5-1.9,1.1-2.7,1.9c-0.3,0.4-0.6,0.8-0.8,1.3c-0.3,0.7-0.5,1.5-0.4,2.2
			c0.1,0.8,0.2,1.5,0.6,2.1c0.1,0.3,0.3,0.7,0.5,1c0.4,0.5,1,0.9,1.6,1c0.6,0.1,1.3,0.2,1.9-0.2c0.1-0.1,0.2,0,0.3,0.1
			c0.1,0.2,0.3,0.4,0.4,0.6c0.1,0.1,0.2,0.3,0.2,0.4c0,0.8,0,1.6,0,2.4c0,0.3,0.1,0.5,0.3,0.6c0.2,0.1,0.2,0.2,0.2,0.3
			c0.1,0.6,0.1,1.3,0.4,1.9c0.4,1.1,1.2,1.6,2.2,1.7c0.2,0.1,0.3,0.1,0.5,0.1c0.5,0.1,1,0.1,1.6,0.2c0.3,0,0.6-0.1,0.9-0.1
			c0.7-0.1,1.1-0.4,1.4-1c0.2-0.4,0.2-0.9,0.2-1.4c0-0.4,0-0.8,0-1.2c0-0.1,0.1-0.3,0.3-0.5c0.1,0.1,0.3,0.3,0.3,0.5
			c0,0.4-0.1,0.8,0,1.2c0,0.5,0.1,0.9,0.2,1.4c0.2,0.6,0.7,0.9,1.4,1c0.3,0,0.6,0.2,0.9,0.1c0.5,0,1-0.1,1.6-0.2
			c0.2,0,0.3-0.1,0.5-0.1c1-0.2,1.7-0.7,2.2-1.7c0.2-0.6,0.3-1.2,0.4-1.9c0-0.2,0-0.3,0.2-0.3c0.2-0.1,0.3-0.3,0.3-0.6
			c0-0.8,0-1.6,0-2.4c0-0.1,0.1-0.3,0.2-0.4c0.1-0.2,0.3-0.4,0.4-0.6c0.1-0.1,0.1-0.2,0.3-0.1c0.6,0.3,1.3,0.3,1.9,0.2
			c0.7-0.1,1.2-0.5,1.6-1c0.2-0.3,0.4-0.6,0.5-1c0.3-0.7,0.5-1.4,0.6-2.1C29.4,24.6,29.2,23.9,28.9,23.2z"/>
	</g>
</g>
</svg>
