<?xml version="1.0" encoding="utf-8"?>
<!-- Generator: Adobe Illustrator 27.6.1, SVG Export Plug-In . SVG Version: 6.00 Build 0)  -->
<svg version="1.1" id="레이어_1" xmlns="http://www.w3.org/2000/svg" xmlns:xlink="http://www.w3.org/1999/xlink" x="0px"
	 y="0px" viewBox="0 0 40 40" style="enable-background:new 0 0 40 40;" xml:space="preserve">
<style type="text/css">
	.st0{fill:none;stroke:#D8DADD;stroke-width:2;stroke-linejoin:round;}
</style>
<path class="st0" d="M5.2,15.3C5,10.5,9.6,6.8,14.4,7.9l0,0c3.7,0.8,5.6,3.5,5.6,3.5s1.9-2.6,5.6-3.5l0,0c4.7-1.1,9.4,2.6,9.2,7.4
	c-0.1,1.7-0.5,3.6-1.5,5.3c-2.7,4.6-9.2,9.2-12,11c-0.8,0.5-1.8,0.5-2.6,0c-2.8-1.8-9.2-6.4-12-11C5.7,18.9,5.3,17.1,5.2,15.3z"/>
</svg>
