<?xml version="1.0" encoding="utf-8"?>
<!-- Generator: Adobe Illustrator 27.6.1, SVG Export Plug-In . SVG Version: 6.00 Build 0)  -->
<svg version="1.1" id="레이어_1" xmlns="http://www.w3.org/2000/svg" xmlns:xlink="http://www.w3.org/1999/xlink" x="0px"
	 y="0px" viewBox="0 0 95 24" style="enable-background:new 0 0 95 24;" xml:space="preserve">
<style type="text/css">
	.st0{fill-rule:evenodd;clip-rule:evenodd;fill:#FFFFFF;filter:url(#Adobe_OpacityMaskFilter);}
	.st1{mask:url(#mask0_139_3956_00000004545510026284225300000007654593941300505492_);}
	.st2{fill-rule:evenodd;clip-rule:evenodd;fill:url(#SVGID_1_);}
	.st3{fill-rule:evenodd;clip-rule:evenodd;fill:url(#SVGID_00000036248332985125085500000014588874533612276135_);}
	.st4{fill-rule:evenodd;clip-rule:evenodd;fill:url(#SVGID_00000120536724692087513070000015690769149536509329_);}
	.st5{fill-rule:evenodd;clip-rule:evenodd;fill:#FFFFFF;}
</style>
<defs>
	<filter id="Adobe_OpacityMaskFilter" filterUnits="userSpaceOnUse" x="41.8" y="0" width="53.2" height="24">
		<feColorMatrix  type="matrix" values="1 0 0 0 0  0 1 0 0 0  0 0 1 0 0  0 0 0 1 0"/>
	</filter>
</defs>
<mask maskUnits="userSpaceOnUse" x="41.8" y="0" width="53.2" height="24" id="mask0_139_3956_00000004545510026284225300000007654593941300505492_">
	<path class="st0" d="M87,0c-0.3,0-0.5,0.1-0.7,0.3l0,0c-0.2,0.2-0.3,0.4-0.3,0.7l0,0v10.3c0,0.3,0.1,0.5,0.3,0.7l0,0
		c0.2,0.2,0.4,0.3,0.7,0.3l0,0h4.2c0.3,0,0.5-0.1,0.7-0.3l0,0c0.2-0.2,0.3-0.4,0.3-0.7l0,0V8.5H94c0.3,0,0.5-0.1,0.7-0.3l0,0
		C94.9,8,95,7.8,95,7.5l0,0V4.3c0-0.3-0.1-0.5-0.3-0.7l0,0c-0.2-0.2-0.4-0.3-0.7-0.3l0,0h-1.9V1c0-0.3-0.1-0.5-0.3-0.7l0,0
		C91.7,0.1,91.5,0,91.2,0l0,0H87z M59.6,0c-0.3,0-0.5,0.1-0.7,0.3l0,0c-0.2,0.2-0.3,0.4-0.3,0.7l0,0v10.3c0,0.3,0.1,0.5,0.3,0.7l0,0
		c0.2,0.2,0.4,0.3,0.7,0.3l0,0h4.2c0.3,0,0.5-0.1,0.7-0.3l0,0c0.2-0.2,0.3-0.4,0.3-0.7l0,0V8.5h1.9c0.3,0,0.5-0.1,0.7-0.3l0,0
		c0.2-0.2,0.3-0.4,0.3-0.7l0,0V4.3c0-0.3-0.1-0.5-0.3-0.7l0,0c-0.2-0.2-0.4-0.3-0.7-0.3l0,0h-1.9V1c0-0.3-0.1-0.5-0.3-0.7l0,0
		C64.3,0.1,64,0,63.8,0l0,0H59.6z M70.3,0.3c-0.3,0-0.5,0.1-0.7,0.3l0,0c-0.2,0.2-0.3,0.4-0.3,0.7l0,0v7.6c0,1.1,0.3,1.9,0.8,2.4
		l0,0c0.5,0.5,1.3,0.7,2.3,0.7l0,0h10.2c0.3,0,0.5-0.1,0.7-0.3l0,0c0.2-0.2,0.3-0.4,0.3-0.7l0,0V8.6c0-0.3-0.1-0.5-0.3-0.7l0,0
		c-0.2-0.2-0.4-0.3-0.7-0.3l0,0h-7.6V4.6h7.3c0.3,0,0.5-0.1,0.7-0.3l0,0c0.2-0.2,0.3-0.4,0.3-0.7l0,0V1.3c0-0.3-0.1-0.5-0.3-0.7l0,0
		c-0.2-0.2-0.4-0.3-0.7-0.3l0,0H70.3z M42.8,0.3c-0.3,0-0.5,0.1-0.7,0.3l0,0c-0.2,0.2-0.3,0.4-0.3,0.7l0,0v7.6
		c0,1.1,0.3,1.9,0.8,2.4l0,0c0.5,0.5,1.3,0.7,2.3,0.7l0,0h10.2c0.3,0,0.5-0.1,0.7-0.3l0,0c0.2-0.2,0.3-0.4,0.3-0.7l0,0V8.6
		c0-0.3-0.1-0.5-0.3-0.7l0,0c-0.2-0.2-0.4-0.3-0.7-0.3l0,0h-7.6V4.6h7.3c0.3,0,0.5-0.1,0.7-0.3l0,0c0.2-0.2,0.3-0.4,0.3-0.7l0,0V1.3
		c0-0.3-0.1-0.5-0.3-0.7l0,0c-0.2-0.2-0.4-0.3-0.7-0.3l0,0H42.8z M71.1,13.2c-0.3,0-0.5,0.1-0.7,0.3l0,0c-0.2,0.2-0.3,0.4-0.3,0.7
		l0,0v6.8c0,1.1,0.3,1.8,0.8,2.3l0,0c0.5,0.5,1.3,0.8,2.3,0.8l0,0H89c1,0,1.8-0.3,2.3-0.8l0,0c0.5-0.5,0.8-1.3,0.8-2.3l0,0v-6.8
		c0-0.3-0.1-0.5-0.3-0.7l0,0c-0.2-0.2-0.4-0.3-0.7-0.3l0,0H71.1z M76.2,19.5H86v-1.8h-9.8V19.5z M43.6,13.2c-0.3,0-0.5,0.1-0.7,0.3
		l0,0c-0.2,0.2-0.3,0.4-0.3,0.7l0,0v6.8c0,1.1,0.3,1.8,0.8,2.3l0,0c0.5,0.5,1.3,0.8,2.3,0.8l0,0h15.8c1,0,1.8-0.3,2.3-0.8l0,0
		c0.5-0.5,0.8-1.3,0.8-2.3l0,0v-6.8c0-0.3-0.1-0.5-0.3-0.7l0,0c-0.2-0.2-0.4-0.3-0.7-0.3l0,0H43.6z M48.8,19.5h9.8v-1.8h-9.8V19.5z"
		/>
</mask>
<g class="st1">
	
		<linearGradient id="SVGID_1_" gradientUnits="userSpaceOnUse" x1="68.4153" y1="23.8898" x2="68.4153" y2="-0.1102" gradientTransform="matrix(1 0 0 -1 0 23.8898)">
		<stop  offset="0" style="stop-color:#515F8D"/>
		<stop  offset="1" style="stop-color:#3B4B7E"/>
	</linearGradient>
	<path class="st2" d="M87,0c-0.3,0-0.5,0.1-0.7,0.3l0,0c-0.2,0.2-0.3,0.4-0.3,0.7l0,0v10.3c0,0.3,0.1,0.5,0.3,0.7l0,0
		c0.2,0.2,0.4,0.3,0.7,0.3l0,0h4.2c0.3,0,0.5-0.1,0.7-0.3l0,0c0.2-0.2,0.3-0.4,0.3-0.7l0,0V8.5H94c0.3,0,0.5-0.1,0.7-0.3l0,0
		C94.9,8,95,7.8,95,7.5l0,0V4.3c0-0.3-0.1-0.5-0.3-0.7l0,0c-0.2-0.2-0.4-0.3-0.7-0.3l0,0h-1.9V1c0-0.3-0.1-0.5-0.3-0.7l0,0
		C91.7,0.1,91.5,0,91.2,0l0,0H87z M59.6,0c-0.3,0-0.5,0.1-0.7,0.3l0,0c-0.2,0.2-0.3,0.4-0.3,0.7l0,0v10.3c0,0.3,0.1,0.5,0.3,0.7l0,0
		c0.2,0.2,0.4,0.3,0.7,0.3l0,0h4.2c0.3,0,0.5-0.1,0.7-0.3l0,0c0.2-0.2,0.3-0.4,0.3-0.7l0,0V8.5h1.9c0.3,0,0.5-0.1,0.7-0.3l0,0
		c0.2-0.2,0.3-0.4,0.3-0.7l0,0V4.3c0-0.3-0.1-0.5-0.3-0.7l0,0c-0.2-0.2-0.4-0.3-0.7-0.3l0,0h-1.9V1c0-0.3-0.1-0.5-0.3-0.7l0,0
		C64.3,0.1,64,0,63.8,0l0,0H59.6z M70.3,0.3c-0.3,0-0.5,0.1-0.7,0.3l0,0c-0.2,0.2-0.3,0.4-0.3,0.7l0,0v7.6c0,1.1,0.3,1.9,0.8,2.4
		l0,0c0.5,0.5,1.3,0.7,2.3,0.7l0,0h10.2c0.3,0,0.5-0.1,0.7-0.3l0,0c0.2-0.2,0.3-0.4,0.3-0.7l0,0V8.6c0-0.3-0.1-0.5-0.3-0.7l0,0
		c-0.2-0.2-0.4-0.3-0.7-0.3l0,0h-7.6V4.6h7.3c0.3,0,0.5-0.1,0.7-0.3l0,0c0.2-0.2,0.3-0.4,0.3-0.7l0,0V1.3c0-0.3-0.1-0.5-0.3-0.7l0,0
		c-0.2-0.2-0.4-0.3-0.7-0.3l0,0H70.3z M42.8,0.3c-0.3,0-0.5,0.1-0.7,0.3l0,0c-0.2,0.2-0.3,0.4-0.3,0.7l0,0v7.6
		c0,1.1,0.3,1.9,0.8,2.4l0,0c0.5,0.5,1.3,0.7,2.3,0.7l0,0h10.2c0.3,0,0.5-0.1,0.7-0.3l0,0c0.2-0.2,0.3-0.4,0.3-0.7l0,0V8.6
		c0-0.3-0.1-0.5-0.3-0.7l0,0c-0.2-0.2-0.4-0.3-0.7-0.3l0,0h-7.6V4.6h7.3c0.3,0,0.5-0.1,0.7-0.3l0,0c0.2-0.2,0.3-0.4,0.3-0.7l0,0V1.3
		c0-0.3-0.1-0.5-0.3-0.7l0,0c-0.2-0.2-0.4-0.3-0.7-0.3l0,0H42.8z M71.1,13.2c-0.3,0-0.5,0.1-0.7,0.3l0,0c-0.2,0.2-0.3,0.4-0.3,0.7
		l0,0v6.8c0,1.1,0.3,1.8,0.8,2.3l0,0c0.5,0.5,1.3,0.8,2.3,0.8l0,0H89c1,0,1.8-0.3,2.3-0.8l0,0c0.5-0.5,0.8-1.3,0.8-2.3l0,0v-6.8
		c0-0.3-0.1-0.5-0.3-0.7l0,0c-0.2-0.2-0.4-0.3-0.7-0.3l0,0H71.1z M76.2,19.5H86v-1.8h-9.8V19.5z M43.6,13.2c-0.3,0-0.5,0.1-0.7,0.3
		l0,0c-0.2,0.2-0.3,0.4-0.3,0.7l0,0v6.8c0,1.1,0.3,1.8,0.8,2.3l0,0c0.5,0.5,1.3,0.8,2.3,0.8l0,0h15.8c1,0,1.8-0.3,2.3-0.8l0,0
		c0.5-0.5,0.8-1.3,0.8-2.3l0,0v-6.8c0-0.3-0.1-0.5-0.3-0.7l0,0c-0.2-0.2-0.4-0.3-0.7-0.3l0,0H43.6z M48.8,19.5h9.8v-1.8h-9.8V19.5z"
		/>
</g>
<linearGradient id="SVGID_00000096031887076438412900000015906045115262057630_" gradientUnits="userSpaceOnUse" x1="26.1254" y1="23.7766" x2="26.1254" y2="0.7718" gradientTransform="matrix(1 0 0 -1 0 23.8898)">
	<stop  offset="0" style="stop-color:#FFA47B"/>
	<stop  offset="1" style="stop-color:#FF7436"/>
</linearGradient>
<path style="fill-rule:evenodd;clip-rule:evenodd;fill:url(#SVGID_00000096031887076438412900000015906045115262057630_);" d="
	M16.3,7.2c0-3.9,3.1-7,7-7h2.3c5.7,0,10.3,4.6,10.3,10.3v0.5c0,6.7-5.4,12.2-12.1,12.2h-5.6c-1,0-1.9-0.8-1.9-1.9V7.2z"/>
<linearGradient id="SVGID_00000093171634517879707600000002658380235300399280_" gradientUnits="userSpaceOnUse" x1="9.7973" y1="23.7766" x2="9.7973" y2="0.7718" gradientTransform="matrix(1 0 0 -1 0 23.8898)">
	<stop  offset="0" style="stop-color:#515F8D"/>
	<stop  offset="1" style="stop-color:#3B4B7E"/>
</linearGradient>
<path style="fill-rule:evenodd;clip-rule:evenodd;fill:url(#SVGID_00000093171634517879707600000002658380235300399280_);" d="
	M0,7.2c0-3.9,3.1-7,7-7h2.3c5.7,0,10.3,4.6,10.3,10.3v0.5c0,6.7-5.4,12.2-12.1,12.2H1.9c-1,0-1.9-0.8-1.9-1.9V7.2z"/>
<path class="st5" d="M6.1,10.7c0.5,0,0.9,0.4,0.9,0.9c0,0.5-0.4,0.9-0.9,0.9s-0.9-0.4-0.9-0.9C5.1,11.1,5.6,10.7,6.1,10.7"/>
<path class="st5" d="M10,10.7c0.5,0,0.9,0.4,0.9,0.9c0,0.5-0.4,0.9-0.9,0.9c-0.5,0-0.9-0.4-0.9-0.9C9.1,11.1,9.5,10.7,10,10.7"/>
<path class="st5" d="M13.8,10.7c0.5,0,0.9,0.4,0.9,0.9c0,0.5-0.4,0.9-0.9,0.9c-0.5,0-0.9-0.4-0.9-0.9C12.8,11.1,13.2,10.7,13.8,10.7
	"/>
<path class="st5" d="M21.7,10c0-1.9,1.6-3.5,3.5-3.5h0.3c2.7,0,4.8,2.2,4.8,4.8c0,3.2-2.5,5.7-5.7,5.7h-1.8c-0.6,0-1.2-0.5-1.2-1.2
	V10z"/>
</svg>
