<svg width="32" height="32" viewBox="0 0 32 32" fill="none" xmlns="http://www.w3.org/2000/svg">
<g clip-path="url(#clip0_214_6714)">
<rect width="32" height="32" rx="16" fill="url(#paint0_linear_214_6714)"/>
<mask id="mask0_214_6714" style="mask-type:luminance" maskUnits="userSpaceOnUse" x="8" y="8" width="16" height="16">
<path fill-rule="evenodd" clip-rule="evenodd" d="M8 8H24V24H8V8Z" fill="white"/>
</mask>
<g mask="url(#mask0_214_6714)">
<path fill-rule="evenodd" clip-rule="evenodd" d="M18.0829 13.6903C17.6322 14.0033 17.1814 14.3162 16.7307 14.6292C15.8247 15.2586 14.9194 15.8889 14.011 16.5149C13.9688 16.544 13.8928 16.5553 13.8444 16.5393C12.4132 16.0664 10.9834 15.5895 9.55383 15.1118C9.20468 14.9951 8.9987 14.7189 9.00001 14.379C9.00131 14.0361 9.21254 13.7654 9.57421 13.6489C12.2981 12.7716 15.0222 11.8951 17.7461 11.0179C18.7464 10.6959 19.7463 10.3727 20.7465 10.0503C21.2058 9.9022 21.6185 10.0891 21.7617 10.506C21.8245 10.6887 21.8035 10.8655 21.7459 11.044C21.183 12.7876 20.6204 14.5312 20.0588 16.2752C19.4221 18.2525 18.7866 20.2303 18.1505 22.2077C17.9911 22.7031 17.5288 22.9296 17.0931 22.7247C16.8988 22.6333 16.7664 22.4842 16.6984 22.2802C16.2136 20.8267 15.7285 19.3734 15.2482 17.9184C15.2327 17.8713 15.2524 17.7961 15.2826 17.7528C16.1911 16.4475 17.1031 15.1446 18.0145 13.8412C18.0447 13.798 18.0744 13.7545 18.1044 13.7111C18.0972 13.7041 18.0901 13.6972 18.0829 13.6903Z" fill="white"/>
</g>
</g>
<defs>
<linearGradient id="paint0_linear_214_6714" x1="0" y1="0" x2="0" y2="32" gradientUnits="userSpaceOnUse">
<stop stop-color="#526394"/>
<stop offset="1" stop-color="#2D457C"/>
</linearGradient>
<clipPath id="clip0_214_6714">
<rect width="32" height="32" fill="white"/>
</clipPath>
</defs>
</svg>
