<?xml version="1.0" encoding="utf-8"?>
<!-- Generator: Adobe Illustrator 27.6.1, SVG Export Plug-In . SVG Version: 6.00 Build 0)  -->
<svg version="1.1" id="레이어_1" xmlns="http://www.w3.org/2000/svg" xmlns:xlink="http://www.w3.org/1999/xlink" x="0px"
	 y="0px" viewBox="0 0 20 20" style="enable-background:new 0 0 20 20;" xml:space="preserve">
<style type="text/css">
	.st0{fill-rule:evenodd;clip-rule:evenodd;fill:url(#SVGID_1_);}
	.st1{fill:url(#SVGID_00000018209685524472095590000005308553461066090923_);}
	.st2{fill:#FFFFFF;}
</style>
<linearGradient id="SVGID_1_" gradientUnits="userSpaceOnUse" x1="9.5" y1="14.8898" x2="9.5" y2="2.8898" gradientTransform="matrix(1 0 0 -1 0 19.8898)">
	<stop  offset="0" style="stop-color:#4289F2"/>
	<stop  offset="1" style="stop-color:#1F51E1"/>
</linearGradient>
<path class="st0" d="M5.5,5C4.1,5,3,6.1,3,7.5v4C3,12.9,4.1,14,5.5,14H7v3l3-3h3.5c1.4,0,2.5-1.1,2.5-2.5v-4C16,6.1,14.9,5,13.5,5
	H5.5z"/>
<linearGradient id="SVGID_00000039101771778982687940000013235164353693578666_" gradientUnits="userSpaceOnUse" x1="9.5" y1="14.8898" x2="9.5" y2="2.8898" gradientTransform="matrix(1 0 0 -1 0 19.8898)">
	<stop  offset="0" style="stop-color:#4289F2"/>
	<stop  offset="1" style="stop-color:#1F51E1"/>
</linearGradient>
<path style="fill:url(#SVGID_00000039101771778982687940000013235164353693578666_);" d="M7,14h0.5c0-0.3-0.2-0.5-0.5-0.5V14z M7,17
	H6.5c0,0.2,0.1,0.4,0.3,0.5s0.4,0,0.5-0.1L7,17z M10,14v-0.5c-0.1,0-0.3,0.1-0.4,0.1L10,14z M3.5,7.5c0-1.1,0.9-2,2-2v-1
	c-1.7,0-3,1.3-3,3H3.5z M3.5,11.5v-4h-1v4H3.5z M5.5,13.5c-1.1,0-2-0.9-2-2h-1c0,1.7,1.3,3,3,3V13.5z M7,13.5H5.5v1H7V13.5z M7.5,17
	v-3h-1v3H7.5z M9.6,13.6l-3,3l0.7,0.7l3-3L9.6,13.6z M13.5,13.5H10v1h3.5V13.5z M15.5,11.5c0,1.1-0.9,2-2,2v1c1.7,0,3-1.3,3-3H15.5z
	 M15.5,7.5v4h1v-4H15.5z M13.5,5.5c1.1,0,2,0.9,2,2h1c0-1.7-1.3-3-3-3V5.5z M5.5,5.5h8v-1h-8V5.5z"/>
<circle class="st2" cx="6.2" cy="9.7" r="0.9"/>
<circle class="st2" cx="9.6" cy="9.7" r="0.9"/>
<circle class="st2" cx="13.1" cy="9.7" r="0.9"/>
</svg>
