<?xml version="1.0" encoding="utf-8"?>
<!-- Generator: Adobe Illustrator 27.6.1, SVG Export Plug-In . SVG Version: 6.00 Build 0)  -->
<svg version="1.1" id="레이어_1" xmlns="http://www.w3.org/2000/svg" xmlns:xlink="http://www.w3.org/1999/xlink" x="0px"
	 y="0px" viewBox="0 0 24 24" style="enable-background:new 0 0 24 24;" xml:space="preserve">
<style type="text/css">
	.st0{fill:#ADB2BB;}
	.st1{fill-rule:evenodd;clip-rule:evenodd;fill:#FFFFFF;}
	.st2{fill-rule:evenodd;clip-rule:evenodd;fill:#ADB2BB;}
	.st3{fill-rule:evenodd;clip-rule:evenodd;fill:url(#SVGID_1_);}
</style>
<rect x="3" y="9" class="st0" width="17" height="12"/>
<path class="st1" d="M2,20.2C2,15.8,2,11.4,2,7c0.1,0,0.2,0,0.2,0c6.5,0,13,0,19.5,0H22c0,0.1,0,0.2,0,0.3c0,4.1,0,8.2,0,12.3
	c0,1-0.4,1.6-1.1,2c-0.2,0.1-0.5,0.2-0.8,0.3H3.4c0,0-0.1,0-0.1,0c-0.6-0.1-1-0.6-1.2-1.2C2.1,20.6,2,20.4,2,20.2z"/>
<path class="st2" d="M6.6,11C6.2,11,6,11.2,6,11.6c0,0.6,0,1.2,0,1.8C6,13.7,6.2,14,6.6,14c0.6,0,1.2,0,1.8,0C8.7,14,9,13.7,9,13.4
	c0-0.6,0-1.2,0-1.8C9,11.2,8.7,11,8.4,11c-0.3,0-0.6,0-0.9,0C7.2,11,6.9,11,6.6,11z"/>
<path class="st2" d="M6,17.4C6,17.8,6.2,18,6.6,18c0.6,0,1.1,0,1.7,0C8.7,18,9,17.8,9,17.4c0-0.6,0-1.2,0-1.8C9,15.2,8.8,15,8.4,15
	c-0.6,0-1.2,0-1.8,0C6.2,15,6,15.3,6,15.6c0,0.3,0,0.6,0,0.9C6,16.8,6,17.1,6,17.4z"/>
<path class="st2" d="M11.1,11c-0.4,0-0.6,0.2-0.6,0.6c0,0.6,0,1.2,0,1.7c0,0.4,0.2,0.6,0.6,0.6c0.6,0,1.2,0,1.8,0
	c0.4,0,0.6-0.2,0.6-0.6c0-0.6,0-1.2,0-1.8c0-0.4-0.2-0.6-0.6-0.6c-0.3,0-0.6,0-0.9,0C11.7,11,11.4,11,11.1,11z"/>
<path class="st2" d="M17.4,18c0.4,0,0.6-0.2,0.6-0.6c0-0.6,0-1.2,0-1.8c0-0.4-0.2-0.6-0.6-0.6c-0.6,0-1.2,0-1.8,0
	c-0.3,0-0.6,0.2-0.6,0.6c0,0.6,0,1.2,0,1.8c0,0.4,0.2,0.6,0.6,0.6c0.3,0,0.6,0,0.9,0C16.8,18,17.1,18,17.4,18z"/>
<path class="st2" d="M12.9,18c0.4,0,0.6-0.2,0.6-0.6c0-0.6,0-1.2,0-1.8c0-0.4-0.2-0.6-0.6-0.6c-0.6,0-1.2,0-1.8,0
	c-0.4,0-0.6,0.2-0.6,0.6c0,0.6,0,1.2,0,1.7c0,0.4,0.2,0.6,0.6,0.6c0.3,0,0.6,0,0.8,0C12.3,18,12.6,18,12.9,18z"/>
<path class="st2" d="M15.6,11c-0.4,0-0.6,0.2-0.6,0.6c0,0.6,0,1.3,0,1.9c0,0.3,0.2,0.5,0.5,0.5c0.6,0,1.3,0,1.9,0
	c0.4,0,0.5-0.2,0.5-0.6c0-0.6,0-1.2,0-1.8c0-0.4-0.2-0.6-0.6-0.6c-0.3,0-0.6,0-0.9,0C16.2,11,15.9,11,15.6,11z"/>
<linearGradient id="SVGID_1_" gradientUnits="userSpaceOnUse" x1="11.9727" y1="21.8898" x2="11.9727" y2="16.1134" gradientTransform="matrix(1 0 0 -1 0 23.8898)">
	<stop  offset="0" style="stop-color:#566391"/>
	<stop  offset="1" style="stop-color:#324478"/>
</linearGradient>
<path class="st3" d="M5,3v0.7c-0.1,0-0.2,0-0.3,0h0h0c-0.3,0-0.6,0-0.9,0c-1,0-1.6,0.7-1.7,1.4c0,0,0,0.1,0,0.1l0,0c0,0,0,0,0,0v2.5
	c0,0,0.1,0,0.1,0l0,0c0.1,0,0.1,0,0.2,0c5.9,0,11.8,0,17.7,0h1.6h0.3c0-0.2,0-0.5,0-0.7v0v0c0-0.5,0-1.1,0-1.6
	c-0.1-0.8-0.6-1.2-1.3-1.5c-0.2-0.1-0.5-0.1-0.8-0.2c-0.4,0-0.8,0-1.3,0c-0.2,0-0.3,0-0.5,0c0,0,0,0,0,0V3c0-0.6-0.5-1-1-1
	c-0.6,0-1,0.5-1,1v0.7H7.1V3c0-0.6-0.5-1-1-1C5.5,2,5,2.5,5,3z"/>
</svg>
