<?xml version="1.0" encoding="utf-8"?>
<!-- Generator: Adobe Illustrator 27.6.1, SVG Export Plug-In . SVG Version: 6.00 Build 0)  -->
<svg version="1.1" id="레이어_1" xmlns="http://www.w3.org/2000/svg" xmlns:xlink="http://www.w3.org/1999/xlink" x="0px"
	 y="0px" viewBox="0 0 16 16" style="enable-background:new 0 0 16 16;" xml:space="preserve">
<style type="text/css">
	.st0{fill-rule:evenodd;clip-rule:evenodd;fill:#FFFFFF;filter:url(#Adobe_OpacityMaskFilter);}
	.st1{mask:url(#mask0_102_4019_00000169528943301649847900000000326658284963114893_);}
	.st2{fill-rule:evenodd;clip-rule:evenodd;fill:#FFFFFF;}
</style>
<defs>
	<filter id="Adobe_OpacityMaskFilter" filterUnits="userSpaceOnUse" x="1.6" y="1.6" width="12.8" height="12.8">
		<feColorMatrix  type="matrix" values="1 0 0 0 0  0 1 0 0 0  0 0 1 0 0  0 0 0 1 0"/>
	</filter>
</defs>
<mask maskUnits="userSpaceOnUse" x="1.6" y="1.6" width="12.8" height="12.8" id="mask0_102_4019_00000169528943301649847900000000326658284963114893_">
	<path class="st0" d="M0,0h16v16H0V0z"/>
</mask>
<g class="st1">
	<path class="st2" d="M10.7,5.3c-0.5,0.3-0.9,0.6-1.4,0.9C8.4,6.9,7.5,7.5,6.6,8.1c0,0-0.1,0-0.2,0C5,7.7,3.6,7.2,2.2,6.7
		C1.8,6.6,1.6,6.3,1.6,6c0-0.3,0.2-0.6,0.6-0.7c2.7-0.9,5.4-1.8,8.2-2.6c1-0.3,2-0.6,3-1c0.5-0.1,0.9,0,1,0.5c0.1,0.2,0,0.4,0,0.5
		c-0.6,1.7-1.1,3.5-1.7,5.2c-0.6,2-1.3,4-1.9,5.9c-0.2,0.5-0.6,0.7-1.1,0.5c-0.2-0.1-0.3-0.2-0.4-0.4c-0.5-1.5-1-2.9-1.5-4.4
		c0,0,0-0.1,0-0.2C8.8,8,9.7,6.7,10.6,5.4C10.6,5.4,10.7,5.4,10.7,5.3C10.7,5.3,10.7,5.3,10.7,5.3z"/>
</g>
</svg>
