<?xml version="1.0" encoding="utf-8"?>
<!-- Generator: Adobe Illustrator 27.6.1, SVG Export Plug-In . SVG Version: 6.00 Build 0)  -->
<svg version="1.1" id="레이어_1" xmlns="http://www.w3.org/2000/svg" xmlns:xlink="http://www.w3.org/1999/xlink" x="0px"
	 y="0px" viewBox="0 0 24 24" style="enable-background:new 0 0 24 24;" xml:space="preserve">
<style type="text/css">
	.st0{fill-rule:evenodd;clip-rule:evenodd;fill:url(#SVGID_1_);}
</style>
<linearGradient id="SVGID_1_" gradientUnits="userSpaceOnUse" x1="12" y1="21.8898" x2="12" y2="1.8898" gradientTransform="matrix(1 0 0 -1 0 23.8898)">
	<stop  offset="0" style="stop-color:#566391"/>
	<stop  offset="1" style="stop-color:#324478"/>
</linearGradient>
<path class="st0" d="M12.7,8.9c0-0.8,0-1.7,0-2.5c0-0.1,0-0.2,0-0.3c-0.1-0.3-0.4-0.5-0.8-0.5c-0.4,0-0.6,0.3-0.6,0.7
	c0,1.9,0,3.8,0,5.7c0,0.3,0.1,0.5,0.3,0.6c1.2,0.9,2.3,1.9,3.5,2.8c0.3,0.3,0.8,0.2,1-0.1c0.3-0.3,0.2-0.8-0.1-1
	c-1-0.8-2.1-1.7-3.1-2.5c-0.1-0.1-0.2-0.2-0.1-0.3C12.7,10.6,12.7,9.7,12.7,8.9z M2,12C2,6.5,6.5,2,12,2c5.5,0,10,4.5,10,10
	c0,5.5-4.5,10-10,10C6.5,22,2,17.5,2,12z"/>
</svg>
