<?xml version="1.0" encoding="utf-8"?>
<!-- Generator: Adobe Illustrator 27.6.1, SVG Export Plug-In . SVG Version: 6.00 Build 0)  -->
<svg version="1.1" id="레이어_1" xmlns="http://www.w3.org/2000/svg" xmlns:xlink="http://www.w3.org/1999/xlink" x="0px"
	 y="0px" viewBox="0 0 20 20" style="enable-background:new 0 0 20 20;" xml:space="preserve">
<style type="text/css">
	.st0{fill-rule:evenodd;clip-rule:evenodd;fill:#FFFFFF;filter:url(#Adobe_OpacityMaskFilter);}
	.st1{mask:url(#mask0_102_3801_00000003805483930568939810000005065092724160676531_);}
	.st2{fill-rule:evenodd;clip-rule:evenodd;fill:#FFFFFF;}
</style>
<defs>
	<filter id="Adobe_OpacityMaskFilter" filterUnits="userSpaceOnUse" x="2" y="2" width="16" height="16">
		<feColorMatrix  type="matrix" values="1 0 0 0 0  0 1 0 0 0  0 0 1 0 0  0 0 0 1 0"/>
	</filter>
</defs>
<mask maskUnits="userSpaceOnUse" x="2" y="2" width="16" height="16" id="mask0_102_3801_00000003805483930568939810000005065092724160676531_">
	<path class="st0" d="M0,0h20v20H0V0z"/>
</mask>
<g class="st1">
	<path class="st2" d="M13.4,6.6c-0.6,0.4-1.1,0.8-1.7,1.2c-1.1,0.8-2.3,1.6-3.4,2.4c-0.1,0-0.1,0.1-0.2,0C6.3,9.6,4.5,9,2.7,8.4
		C2.3,8.2,2,7.9,2,7.5C2,7,2.3,6.7,2.7,6.6c3.4-1.1,6.8-2.2,10.2-3.3c1.3-0.4,2.5-0.8,3.8-1.2c0.6-0.2,1.1,0,1.3,0.6
		c0.1,0.2,0.1,0.4,0,0.7c-0.7,2.2-1.4,4.4-2.1,6.5c-0.8,2.5-1.6,4.9-2.4,7.4c-0.2,0.6-0.8,0.9-1.3,0.6c-0.2-0.1-0.4-0.3-0.5-0.6
		c-0.6-1.8-1.2-3.6-1.8-5.5c0-0.1,0-0.2,0-0.2c1.1-1.6,2.3-3.3,3.4-4.9C13.3,6.7,13.3,6.7,13.4,6.6C13.4,6.6,13.4,6.6,13.4,6.6z"/>
</g>
</svg>
