<?xml version="1.0" encoding="utf-8"?>
<!-- Generator: Adobe Illustrator 27.6.1, SVG Export Plug-In . SVG Version: 6.00 Build 0)  -->
<svg version="1.1" id="레이어_1" xmlns="http://www.w3.org/2000/svg" xmlns:xlink="http://www.w3.org/1999/xlink" x="0px"
	 y="0px" viewBox="0 0 16 16" style="enable-background:new 0 0 16 16;" xml:space="preserve">
<style type="text/css">
	.st0{fill-rule:evenodd;clip-rule:evenodd;fill:url(#SVGID_1_);}
	.st1{fill:url(#SVGID_00000105402794792287362020000018431636403393931658_);}
</style>
<linearGradient id="SVGID_1_" gradientUnits="userSpaceOnUse" x1="8" y1="13.8898" x2="8" y2="1.8898" gradientTransform="matrix(1 0 0 -1 0 15.8898)">
	<stop  offset="0" style="stop-color:#4289F2"/>
	<stop  offset="1" style="stop-color:#1F51E1"/>
</linearGradient>
<path class="st0" d="M8,8c1.7,0,3-1.3,3-3S9.7,2,8,2S5,3.3,5,5S6.3,8,8,8z M8,8c-3.3,0-6,1.7-6,5v1h12v-1C14,9.7,11.3,8,8,8z"/>
<linearGradient id="SVGID_00000080175491127083800810000016277513039485831090_" gradientUnits="userSpaceOnUse" x1="8" y1="13.8898" x2="8" y2="1.8898" gradientTransform="matrix(1 0 0 -1 0 15.8898)">
	<stop  offset="0" style="stop-color:#4289F2"/>
	<stop  offset="1" style="stop-color:#1F51E1"/>
</linearGradient>
<path style="fill:url(#SVGID_00000080175491127083800810000016277513039485831090_);" d="M2,14H1.5c0,0.3,0.2,0.5,0.5,0.5V14z
	 M14,14v0.5c0.3,0,0.5-0.2,0.5-0.5H14z M10.5,5c0,1.4-1.1,2.5-2.5,2.5v1c1.9,0,3.5-1.6,3.5-3.5H10.5z M8,2.5c1.4,0,2.5,1.1,2.5,2.5
	h1c0-1.9-1.6-3.5-3.5-3.5V2.5z M5.5,5c0-1.4,1.1-2.5,2.5-2.5v-1C6.1,1.5,4.5,3.1,4.5,5H5.5z M8,7.5C6.6,7.5,5.5,6.4,5.5,5h-1
	c0,1.9,1.6,3.5,3.5,3.5V7.5z M8,7.5c-1.7,0-3.4,0.4-4.5,1.4c-1.2,0.9-2,2.3-2,4.2h1c0-1.5,0.6-2.6,1.6-3.4C5,8.9,6.4,8.5,8,8.5V7.5z
	 M1.5,13v1h1v-1H1.5z M2,14.5h12v-1H2V14.5z M14.5,14v-1h-1v1H14.5z M14.5,13c0-1.8-0.7-3.2-2-4.2C11.4,7.9,9.7,7.5,8,7.5v1
	c1.6,0,3,0.4,3.9,1.2c1,0.7,1.6,1.9,1.6,3.4H14.5z"/>
</svg>
