<?xml version="1.0" encoding="utf-8"?>
<!-- Generator: Adobe Illustrator 27.6.1, SVG Export Plug-In . SVG Version: 6.00 Build 0)  -->
<svg version="1.1" id="레이어_1" xmlns="http://www.w3.org/2000/svg" xmlns:xlink="http://www.w3.org/1999/xlink" x="0px"
	 y="0px" viewBox="0 0 16 16" style="enable-background:new 0 0 16 16;" xml:space="preserve">
<style type="text/css">
	.st0{fill:#ADB2BB;}
	.st1{fill-rule:evenodd;clip-rule:evenodd;fill:#E5E8EC;}
	.st2{fill-rule:evenodd;clip-rule:evenodd;fill:#ADB2BB;}
	.st3{fill-rule:evenodd;clip-rule:evenodd;fill:#FF5555;}
	.st4{fill-rule:evenodd;clip-rule:evenodd;fill:url(#SVGID_1_);}
</style>
<rect x="2" y="6" class="st0" width="11.3" height="8"/>
<path class="st1" d="M1.3,13.5c0-2.9,0-5.9,0-8.8c0.1,0,0.1,0,0.2,0c4.3,0,8.7,0,13,0h0.2c0,0.1,0,0.2,0,0.2c0,2.7,0,5.5,0,8.2
	c0,0.6-0.3,1.1-0.7,1.4c-0.2,0.1-0.3,0.1-0.5,0.2H2.3c0,0,0,0-0.1,0c-0.4-0.1-0.7-0.4-0.8-0.8C1.4,13.7,1.4,13.6,1.3,13.5z"/>
<path class="st2" d="M4.4,7.3C4.2,7.3,4,7.5,4,7.7c0,0.4,0,0.8,0,1.2c0,0.2,0.1,0.4,0.4,0.4c0.4,0,0.8,0,1.2,0C5.8,9.3,6,9.2,6,8.9
	c0-0.4,0-0.8,0-1.2c0-0.2-0.2-0.4-0.4-0.4c-0.2,0-0.4,0-0.6,0C4.8,7.3,4.6,7.3,4.4,7.3z"/>
<path class="st3" d="M4,11.6C4,11.8,4.2,12,4.4,12c0.4,0,0.8,0,1.1,0C5.8,12,6,11.8,6,11.6c0-0.4,0-0.8,0-1.2C6,10.2,5.8,10,5.6,10
	c-0.4,0-0.8,0-1.2,0C4.1,10,4,10.2,4,10.4c0,0.2,0,0.4,0,0.6C4,11.2,4,11.4,4,11.6z"/>
<path class="st2" d="M7.4,7.4C7.2,7.4,7,7.5,7,7.8c0,0.4,0,0.8,0,1.2c0,0.3,0.1,0.4,0.4,0.4c0.4,0,0.8,0,1.2,0C8.9,9.3,9,9.2,9,9
	c0-0.4,0-0.8,0-1.2c0-0.2-0.2-0.4-0.4-0.4c-0.2,0-0.4,0-0.6,0C7.8,7.4,7.6,7.4,7.4,7.4z"/>
<path class="st2" d="M11.6,12c0.3,0,0.4-0.1,0.4-0.4c0-0.4,0-0.8,0-1.2c0-0.2-0.1-0.4-0.4-0.4c-0.4,0-0.8,0-1.2,0
	c-0.2,0-0.4,0.2-0.4,0.4c0,0.4,0,0.8,0,1.2c0,0.2,0.2,0.4,0.4,0.4c0.2,0,0.4,0,0.6,0C11.2,12,11.4,12,11.6,12z"/>
<path class="st2" d="M8.6,12C8.9,12,9,11.9,9,11.6c0-0.4,0-0.8,0-1.2C9,10.2,8.8,10,8.6,10c-0.4,0-0.8,0-1.2,0C7.1,10,7,10.2,7,10.4
	c0,0.4,0,0.8,0,1.2C7,11.9,7.2,12,7.4,12c0.2,0,0.4,0,0.6,0C8.2,12,8.4,12,8.6,12z"/>
<path class="st2" d="M10.4,7.4c-0.2,0-0.4,0.1-0.4,0.4c0,0.4,0,0.8,0,1.3c0,0.2,0.1,0.4,0.4,0.4c0.4,0,0.8,0,1.3,0
	C11.9,9.3,12,9.2,12,9c0-0.4,0-0.8,0-1.2c0-0.2-0.2-0.4-0.4-0.4c-0.2,0-0.4,0-0.6,0C10.8,7.4,10.6,7.4,10.4,7.4z"/>
<linearGradient id="SVGID_1_" gradientUnits="userSpaceOnUse" x1="7.9819" y1="14.5559" x2="7.9819" y2="10.7049" gradientTransform="matrix(1 0 0 -1 0 15.8898)">
	<stop  offset="0" style="stop-color:#526394"/>
	<stop  offset="1" style="stop-color:#2D457C"/>
</linearGradient>
<path class="st4" d="M3.3,2v0.5c-0.1,0-0.2,0-0.2,0l0,0c-0.2,0-0.4,0-0.6,0c-0.7,0-1.1,0.4-1.2,0.9c0,0,0,0,0,0.1l0,0l0,0
	c0,0,0,0,0,0v1.7c0,0,0,0,0.1,0h0c0,0,0.1,0,0.1,0c3.9,0,7.9,0,11.8,0h1.1h0.2c0-0.2,0-0.3,0-0.5v0v0c0-0.4,0-0.7,0-1.1
	c0-0.5-0.4-0.8-0.9-1c-0.2-0.1-0.3-0.1-0.5-0.1c-0.3,0-0.6,0-0.8,0l0,0c-0.1,0-0.2,0-0.3,0c0,0,0,0,0,0V2c0-0.4-0.3-0.7-0.7-0.7
	S10.7,1.6,10.7,2v0.5h-6V2c0-0.4-0.3-0.7-0.7-0.7C3.6,1.3,3.3,1.6,3.3,2z"/>
</svg>
