<?xml version="1.0" encoding="utf-8"?>
<!-- Generator: Adobe Illustrator 27.6.1, SVG Export Plug-In . SVG Version: 6.00 Build 0)  -->
<svg version="1.1" id="레이어_1" xmlns="http://www.w3.org/2000/svg" xmlns:xlink="http://www.w3.org/1999/xlink" x="0px"
	 y="0px" viewBox="0 0 32 32" style="enable-background:new 0 0 32 32;" xml:space="preserve">
<style type="text/css">
	.st0{fill:url(#SVGID_1_);}
	.st1{fill-rule:evenodd;clip-rule:evenodd;fill:#FFFFFF;filter:url(#Adobe_OpacityMaskFilter);}
	.st2{mask:url(#mask0_25_3753_00000156587943708823708780000001756584132181322387_);}
	.st3{fill-rule:evenodd;clip-rule:evenodd;fill:#FFFFFF;}
</style>
<linearGradient id="SVGID_1_" gradientUnits="userSpaceOnUse" x1="16" y1="31.8898" x2="16" y2="-0.1102" gradientTransform="matrix(1 0 0 -1 0 31.8898)">
	<stop  offset="0" style="stop-color:#FFA67E"/>
	<stop  offset="1" style="stop-color:#FF7133"/>
</linearGradient>
<circle class="st0" cx="16" cy="16" r="16"/>
<defs>
	<filter id="Adobe_OpacityMaskFilter" filterUnits="userSpaceOnUse" x="8" y="8" width="16" height="16">
		<feColorMatrix  type="matrix" values="1 0 0 0 0  0 1 0 0 0  0 0 1 0 0  0 0 0 1 0"/>
	</filter>
</defs>
<mask maskUnits="userSpaceOnUse" x="8" y="8" width="16" height="16" id="mask0_25_3753_00000156587943708823708780000001756584132181322387_">
	<path class="st1" d="M8,8h16v16H8V8z"/>
</mask>
<g class="st2">
	<path class="st3" d="M13.8,16c0,0.8,0,1.7,0,2.5c0,0.5,0.5,0.8,0.9,0.6c0.2-0.1,0.4-0.2,0.6-0.3c1.4-0.7,2.7-1.5,4.1-2.2
		c0.2-0.1,0.3-0.2,0.4-0.4c0.1-0.3,0-0.6-0.3-0.7c-1.6-0.8-3.1-1.7-4.7-2.5c-0.5-0.3-0.9,0-0.9,0.6C13.8,14.3,13.8,15.2,13.8,16z
		 M16,8c4.4,0,8,3.6,8,8c0,4.4-3.6,8-8,8c-4.4,0-8-3.6-8-8C8,11.6,11.6,8,16,8z"/>
</g>
</svg>
