<?xml version="1.0" encoding="utf-8"?>
<!-- Generator: Adobe Illustrator 27.6.1, SVG Export Plug-In . SVG Version: 6.00 Build 0)  -->
<svg version="1.1" id="레이어_1" xmlns="http://www.w3.org/2000/svg" xmlns:xlink="http://www.w3.org/1999/xlink" x="0px"
	 y="0px" viewBox="0 0 40 40" style="enable-background:new 0 0 40 40;" xml:space="preserve">
<style type="text/css">
	.st0{fill:url(#SVGID_1_);}
	.st1{fill-rule:evenodd;clip-rule:evenodd;fill:#FFFFFF;filter:url(#Adobe_OpacityMaskFilter);}
	.st2{mask:url(#mask0_25_2874_00000165231314546595727000000006413248666692368003_);}
	.st3{fill-rule:evenodd;clip-rule:evenodd;fill:#FFFFFF;}
</style>
<linearGradient id="SVGID_1_" gradientUnits="userSpaceOnUse" x1="20" y1="39.8898" x2="20" y2="-0.1102" gradientTransform="matrix(1 0 0 -1 0 39.8898)">
	<stop  offset="0" style="stop-color:#FFA67E"/>
	<stop  offset="1" style="stop-color:#FF7133"/>
</linearGradient>
<circle class="st0" cx="20" cy="20" r="20"/>
<defs>
	<filter id="Adobe_OpacityMaskFilter" filterUnits="userSpaceOnUse" x="10" y="10" width="20" height="20">
		<feColorMatrix  type="matrix" values="1 0 0 0 0  0 1 0 0 0  0 0 1 0 0  0 0 0 1 0"/>
	</filter>
</defs>
<mask maskUnits="userSpaceOnUse" x="10" y="10" width="20" height="20" id="mask0_25_2874_00000165231314546595727000000006413248666692368003_">
	<path class="st1" d="M10,10h20v20H10V10z"/>
</mask>
<g class="st2">
	<path class="st3" d="M17.2,20c0,1.1,0,2.1,0,3.2c0,0.7,0.6,1,1.2,0.7c0.2-0.1,0.5-0.3,0.7-0.4c1.7-0.9,3.4-1.9,5.1-2.8
		c0.2-0.1,0.4-0.3,0.4-0.5c0.1-0.4,0-0.7-0.4-0.9c-1.9-1.1-3.9-2.1-5.8-3.2c-0.6-0.3-1.2,0-1.2,0.7C17.2,17.9,17.2,18.9,17.2,20z
		 M20,10c5.5,0,10,4.5,10,10c0,5.5-4.5,10-10,10c-5.5,0-10-4.5-10-10C10,14.4,14.5,10,20,10z"/>
</g>
</svg>
