<?xml version="1.0" encoding="utf-8"?>
<!-- Generator: Adobe Illustrator 27.6.1, SVG Export Plug-In . SVG Version: 6.00 Build 0)  -->
<svg version="1.1" id="레이어_1" xmlns="http://www.w3.org/2000/svg" xmlns:xlink="http://www.w3.org/1999/xlink" x="0px"
	 y="0px" viewBox="0 0 32 32" style="enable-background:new 0 0 32 32;" xml:space="preserve">
<style type="text/css">
	.st0{fill:url(#SVGID_1_);}
	.st1{fill-rule:evenodd;clip-rule:evenodd;fill:#FFFFFF;}
</style>
<linearGradient id="SVGID_1_" gradientUnits="userSpaceOnUse" x1="16" y1="31.8898" x2="16" y2="-0.1102" gradientTransform="matrix(1 0 0 -1 0 31.8898)">
	<stop  offset="0" style="stop-color:#FFA47B"/>
	<stop  offset="1" style="stop-color:#FF7539"/>
</linearGradient>
<circle class="st0" cx="16" cy="16" r="16"/>
<path class="st1" d="M16.5,16.7c-0.6,0-1.2,0.4-1.4,0.9c-0.2,0.5,0,1.1,0.5,1.5c0.1,0.1,0.1,0.1,0.1,0.3c0,0.4,0,0.9,0,1.3
	c0,0.1,0,0.2,0,0.3c0.1,0.3,0.4,0.5,0.7,0.5c0.4,0,0.6-0.3,0.6-0.6c0-0.5,0-0.9,0-1.4c0-0.1,0-0.2,0.1-0.2c0.5-0.3,0.7-0.9,0.5-1.5
	C17.7,17,17.1,16.7,16.5,16.7z M19.4,14c0-0.7,0-1.4,0-2.1c0-1.5-1.3-2.6-2.9-2.6c-1.6,0-2.8,1.2-2.9,2.6c0,0.6,0,1.2,0,1.8
	c0,0.1,0,0.2,0,0.3H19.4z M20.8,14c0.3,0,0.5,0,0.8,0c0.8,0.1,1.4,0.7,1.4,1.5c0,1.9,0,3.9,0,5.8c0,0.4,0,0.7,0,1.1
	c0,0.9-0.7,1.5-1.7,1.5c-3.2,0-6.5,0-9.7,0c-0.9,0-1.6-0.7-1.6-1.5c0-2.3,0-4.6,0-7c0-0.9,0.7-1.5,1.7-1.5c0.2,0,0.3,0,0.5,0
	c0-0.1,0-0.1,0-0.2c0-0.6,0-1.2,0-1.9c0-2,1.6-3.7,3.7-3.9c2.4-0.3,4.6,1.2,4.9,3.4c0,0.2,0,0.4,0,0.6C20.8,12.7,20.8,13.3,20.8,14z
	"/>
</svg>
