<?xml version="1.0" encoding="utf-8"?>
<!-- Generator: Adobe Illustrator 27.6.1, SVG Export Plug-In . SVG Version: 6.00 Build 0)  -->
<svg version="1.1" id="레이어_1" xmlns="http://www.w3.org/2000/svg" xmlns:xlink="http://www.w3.org/1999/xlink" x="0px"
	 y="0px" viewBox="0 0 40 40" style="enable-background:new 0 0 40 40;" xml:space="preserve">
<style type="text/css">
	.st0{fill:url(#SVGID_1_);}
	.st1{fill-rule:evenodd;clip-rule:evenodd;fill:#FFFFFF;}
</style>
<linearGradient id="SVGID_1_" gradientUnits="userSpaceOnUse" x1="20" y1="39.8898" x2="20" y2="-0.1102" gradientTransform="matrix(1 0 0 -1 0 39.8898)">
	<stop  offset="0" style="stop-color:#FFA47B"/>
	<stop  offset="1" style="stop-color:#FF7539"/>
</linearGradient>
<circle class="st0" cx="20" cy="20" r="20"/>
<path class="st1" d="M20,20.8c-0.8,0-1.4,0.5-1.7,1.1c-0.2,0.7,0,1.4,0.6,1.9c0.1,0.1,0.2,0.2,0.2,0.3c0,0.5,0,1.1,0,1.6
	c0,0.1,0,0.2,0,0.3c0.1,0.4,0.5,0.6,0.9,0.6c0.5-0.1,0.8-0.4,0.8-0.8c0-0.6,0-1.1,0-1.7c0-0.1,0-0.2,0.2-0.3
	c0.6-0.4,0.9-1.2,0.6-1.9C21.4,21.3,20.8,20.8,20,20.8z M23.6,17.5c0-0.9,0-1.7,0-2.6c0-1.8-1.6-3.3-3.6-3.3c-1.9,0-3.5,1.4-3.5,3.3
	c0,0.7,0,1.5,0,2.2c0,0.1,0,0.2,0,0.4H23.6z M25.3,17.5c0.3,0,0.7,0,1,0.1c1,0.1,1.7,0.9,1.7,1.9c0,2.4,0,4.9,0,7.3
	c0,0.5,0,0.9,0,1.4c0,1.1-0.9,1.9-2,1.9c-4,0-8,0-11.9,0c-1.1,0-2-0.8-2-1.9c0-2.9,0-5.8,0-8.7c0-1.1,0.9-1.9,2-1.9
	c0.2,0,0.4,0,0.6,0c0-0.1,0-0.1,0-0.2c0-0.8,0-1.5,0-2.3c0-2.5,2-4.6,4.6-4.9c2.9-0.4,5.6,1.5,6,4.3c0,0.2,0,0.5,0,0.7
	C25.3,15.8,25.3,16.7,25.3,17.5z"/>
</svg>
